<svg width="48" height="48" viewBox="0 0 48 48" fill="none" xmlns="http://www.w3.org/2000/svg">
  <circle cx="24" cy="24" r="24" fill="#F7931A" fill-opacity="0.1"/>
  <path d="M33.5802 20.3965C32.9769 17.2013 30.0759 16.2564 26.5233 16.9045L25.1845 12.2334L22.488 12.9309L23.7966 17.4826C23.0791 17.6742 22.3464 17.877 21.6183 18.0787L20.3035 13.5004L17.6097 14.1979L18.9485 18.869C18.3527 19.0336 17.7659 19.1959 17.1898 19.3478L17.185 19.3298L13.4769 20.2967L14.2206 23.1885C14.2206 23.1885 16.2142 22.6687 16.186 22.7055C17.284 22.4339 17.7588 23.1184 17.9194 23.6621L19.4506 28.9995C19.5182 29.0142 19.6052 29.0214 19.7026 29.044C19.6274 29.0607 19.5474 29.0763 19.4662 29.0934L21.6264 36.7267C21.5418 36.9914 21.2586 37.4239 20.5109 37.6127C20.5529 37.638 18.541 38.0848 18.541 38.0848L19.0025 41.2101L22.5323 40.2921C23.1956 40.1182 23.8459 39.9371 24.483 39.7546L25.835 44.4739L28.5276 43.7764L27.1865 39.0853C27.9229 38.8844 28.6397 38.6871 29.335 38.4837L30.6674 43.1449L33.3639 42.4475L32.0143 37.7403C35.7823 36.7026 38.2951 34.0812 37.6142 30.3628C37.0686 27.374 35.1257 26.1395 32.4353 25.9054C34.3062 24.8021 35.0212 23.0107 33.5802 20.3965ZM31.6673 30.0167C32.0896 32.6361 28.0001 33.9084 25.7975 34.4603L24.0116 28.289C26.2139 27.7391 31.2163 27.2535 31.6673 30.0167ZM27.9441 23.0704C28.3326 25.4665 24.9177 26.5635 23.0367 27.0325L21.4068 21.3779C23.2877 20.911 27.5297 20.5387 27.9441 23.0704Z" fill="#F7931A"/>
</svg> 