<svg width="48" height="48" viewBox="0 0 48 48" fill="none" xmlns="http://www.w3.org/2000/svg">
  <circle cx="24" cy="24" r="24" fill="#26A17B" fill-opacity="0.1"/>
  <path d="M24 38.5C32.0081 38.5 38.5 32.0081 38.5 24C38.5 15.9919 32.0081 9.5 24 9.5C15.9919 9.5 9.5 15.9919 9.5 24C9.5 32.0081 15.9919 38.5 24 38.5Z" fill="#26A17B"/>
  <path d="M25.5025 25.8693V25.8595C25.3175 25.8782 24.0605 25.9283 22.3893 25.9283C21.1143 25.9283 20.1562 25.8848 19.7314 25.8595V25.8693C16.5986 25.7035 14.2689 25.1493 14.2689 24.4946C14.2689 23.8398 16.5986 23.2856 19.7314 23.1177V25.2879C20.1627 25.3219 21.1395 25.3754 22.4013 25.3754C23.9635 25.3754 25.2074 25.3142 25.5025 25.2879V23.1199C28.626 23.2878 30.9489 23.842 30.9489 24.4946C30.9489 25.1471 28.626 25.7013 25.5025 25.8693ZM25.5025 22.9738V21.0683H31.2767V17.9512H16.9167V21.0683H22.6887V22.9738C19.2108 23.1593 16.6667 23.8442 16.6667 24.6737C16.6667 25.5033 19.2108 26.186 22.6887 26.3736V32.047H25.5025V26.3736C28.9718 26.186 31.5 25.5033 31.5 24.6737C31.5 23.8442 28.9718 23.1593 25.5025 22.9738Z" fill="white"/>
</svg> 