<svg width="28" height="28" viewBox="0 0 28 28" fill="none" xmlns="http://www.w3.org/2000/svg">
<path fill-rule="evenodd" clip-rule="evenodd" d="M14.0003 27.3333C21.3641 27.3333 27.3337 21.3638 27.3337 14C27.3337 6.63621 21.3641 0.666672 14.0003 0.666672C6.63653 0.666672 0.666992 6.63621 0.666992 14C0.666992 21.3638 6.63653 27.3333 14.0003 27.3333ZM14.6266 9.2929C15.0171 8.90237 15.6502 8.90237 16.0408 9.2929L20.0408 13.2929C20.4313 13.6834 20.4313 14.3166 20.0408 14.7071L16.0408 18.7071C15.6502 19.0976 15.0171 19.0976 14.6266 18.7071C14.236 18.3166 14.236 17.6834 14.6266 17.2929L16.9194 15H8.66699C8.11471 15 7.66699 14.5523 7.66699 14C7.66699 13.4477 8.11471 13 8.66699 13H16.9194L14.6266 10.7071C14.236 10.3166 14.236 9.68342 14.6266 9.2929Z" fill="#D4D4D8"/>
</svg>
