<svg width="56" height="56" viewBox="0 0 56 56" fill="none" xmlns="http://www.w3.org/2000/svg">
<g clip-path="url(#clip0_1471_9898)">
<path d="M28 55.125C42.9807 55.125 55.125 42.9807 55.125 28C55.125 13.0193 42.9807 0.875 28 0.875C13.0193 0.875 0.875 13.0193 0.875 28C0.875 42.9807 13.0193 55.125 28 55.125Z" fill="#E6ECFF"/>
<path d="M49.767 44.1656C47.2372 40.7788 43.9524 38.0286 40.1734 36.1338C36.3945 34.2389 32.2257 33.2516 27.9984 33.2502C23.771 33.2489 19.6016 34.2335 15.8214 36.126C12.0413 38.0184 8.75463 40.7664 6.22266 44.1516C8.74168 47.5541 12.0229 50.319 15.8032 52.2246C19.5836 54.1302 23.7578 55.1236 27.9913 55.1249C32.2248 55.1263 36.3997 54.1357 40.1813 52.2325C43.9628 50.3293 47.2458 47.5665 49.767 44.1656Z" fill="#4294FF"/>
<path d="M28 29.75C33.799 29.75 38.5 25.049 38.5 19.25C38.5 13.451 33.799 8.75 28 8.75C22.201 8.75 17.5 13.451 17.5 19.25C17.5 25.049 22.201 29.75 28 29.75Z" fill="#4294FF"/>
</g>
<defs>
<clipPath id="clip0_1471_9898">
<rect width="56" height="56" fill="white"/>
</clipPath>
</defs>
</svg>
