<svg width="28" height="28" viewBox="0 0 28 28" fill="none" xmlns="http://www.w3.org/2000/svg">
<path d="M27.582 17.387C25.7121 24.8871 18.1158 29.4515 10.6148 27.5812C3.11695 25.7114 -1.44751 18.1146 0.423226 10.6149C2.29222 3.11397 9.88856 -1.45092 17.3874 0.418943C24.8878 2.28884 29.4519 9.88649 27.582 17.387Z" fill="#F7931A"/>
<path d="M9.39547 16.3583C9.31935 16.5473 9.12642 16.8308 8.69153 16.7232C8.70687 16.7455 7.57505 16.4445 7.57505 16.4445L6.8125 18.2028L8.81141 18.7011C9.18329 18.7943 9.54775 18.8919 9.90649 18.9838L9.27078 21.5361L10.8051 21.9189L11.4347 19.3937C11.8416 19.5039 12.2496 19.6098 12.6588 19.7113L12.0314 22.2247L13.5675 22.6075L14.2032 20.06C16.8225 20.5557 18.7921 20.3557 19.6212 17.9867C20.2893 16.0792 19.588 14.9788 18.2098 14.2613C19.2135 14.0299 19.9694 13.3697 20.1711 12.006C20.4498 10.1431 19.0314 9.14169 17.092 8.47361L17.7211 5.95008L16.185 5.56727L15.5725 8.02428C15.1687 7.92365 14.7539 7.82871 14.3418 7.73463L14.9587 5.26141L13.4235 4.8786L12.7939 7.40123C12.4597 7.32511 12.1316 7.24982 11.8131 7.17066L11.8148 7.16277L9.69641 6.63383L9.28776 8.27447C9.28776 8.27447 10.4275 8.53566 10.4034 8.55184C11.0255 8.70716 11.138 9.11882 11.1192 9.44524L9.39547 16.3583ZM16.6615 16.9275C16.1868 18.835 12.9751 17.8038 11.9338 17.5452L12.7774 14.1638C13.8186 14.4236 17.1576 14.9381 16.6615 16.9275ZM17.1366 11.9785C16.7035 13.7136 14.0303 12.832 13.1632 12.6159L13.928 9.549C14.7951 9.76513 17.5877 10.1685 17.1366 11.9785Z" fill="white"/>
</svg>
