<svg width="40" height="40" viewBox="0 0 40 40" fill="none" xmlns="http://www.w3.org/2000/svg">
<path fill-rule="evenodd" clip-rule="evenodd" d="M11.1716 12.1716C10 13.3432 10 15.2288 10 19V21C10 24.7712 10 26.6568 11.1716 27.8284C12.3431 29 14.2288 29 18 29H22C22.0843 29 22.1676 29 22.25 29L22.25 11C22.1676 11 22.0843 11 22 11H18C14.2288 11 12.3431 11 11.1716 12.1716ZM23.75 11.0056L23.75 28.9944C26.3859 28.9668 27.8541 28.8028 28.8284 27.8284C30 26.6568 30 24.7712 30 21V19C30 15.2288 30 13.3432 28.8284 12.1716C27.8541 11.1972 26.3859 11.0332 23.75 11.0056Z" fill="black"/>
</svg>
