<svg width="20" height="20" viewBox="0 0 20 20" fill="none" xmlns="http://www.w3.org/2000/svg">
<path d="M20.0001 6.50012C20.0001 9.76012 17.6001 12.4501 14.4801 12.9201V12.8601C14.1701 8.98012 11.0201 5.83012 7.11008 5.52012H7.08008C7.31326 3.98434 8.08915 2.58299 9.26701 1.57025C10.4449 0.557514 11.9467 0.000457318 13.5001 0.00012207C14.3537 0.00012207 15.1989 0.168249 15.9875 0.494905C16.7761 0.821561 17.4927 1.30035 18.0963 1.90393C18.6999 2.50751 19.1786 3.22406 19.5053 4.01268C19.832 4.8013 20.0001 5.64653 20.0001 6.50012Z" fill="#52525B"/>
<path d="M12.9792 12.98C12.8464 11.352 12.1064 9.83336 10.906 8.72559C9.70562 7.61782 8.1326 7.00187 6.49917 7C5.19145 7.00017 3.91419 7.39478 2.83427 8.13228C1.75435 8.86978 0.921999 9.91587 0.445962 11.1339C-0.0300747 12.3519 -0.127657 13.6851 0.165967 14.9595C0.45959 16.2338 1.13076 17.3899 2.09179 18.2768C3.05282 19.1637 4.25902 19.74 5.55277 19.9306C6.84653 20.1212 8.16769 19.9171 9.34363 19.345C10.5196 18.7729 11.4956 17.8594 12.1442 16.7238C12.7928 15.5883 13.0838 14.2835 12.9792 12.98ZM7.37917 14.38L6.49917 16L5.61917 14.38L3.99917 13.5L5.61917 12.62L6.49917 11L7.37917 12.62L8.99917 13.5L7.37917 14.38Z" fill="#52525B"/>
</svg>
