<svg width="20" height="20" viewBox="0 0 20 20" fill="none" xmlns="http://www.w3.org/2000/svg">
<path d="M2.72843 12.7466C2.02015 11.8264 1.66602 11.3663 1.66602 10.0002C1.66602 8.63402 2.02015 8.17393 2.72843 7.25377C4.14265 5.41646 6.51444 3.3335 9.99935 3.3335C13.4843 3.3335 15.856 5.41646 17.2703 7.25377C17.9785 8.17393 18.3327 8.63402 18.3327 10.0002C18.3327 11.3663 17.9785 11.8264 17.2703 12.7466C15.856 14.5839 13.4843 16.6668 9.99935 16.6668C6.51444 16.6668 4.14265 14.5839 2.72843 12.7466Z" stroke="#A1A1AA" stroke-width="1.5"/>
<path d="M12.5 10C12.5 11.3807 11.3807 12.5 10 12.5C8.61929 12.5 7.5 11.3807 7.5 10C7.5 8.61929 8.61929 7.5 10 7.5C11.3807 7.5 12.5 8.61929 12.5 10Z" stroke="#A1A1AA" stroke-width="1.5"/>
</svg>
