<svg width="20" height="20" viewBox="0 0 20 20" fill="none" xmlns="http://www.w3.org/2000/svg">
<path d="M14.1996 11.2003V16.8003C14.1996 17.0203 14.0196 17.2003 13.7996 17.2003H12.9996V19.2003C12.9996 19.4203 12.8196 19.6003 12.5996 19.6003C12.3796 19.6003 12.1996 19.4203 12.1996 19.2003V17.2003H11.3996C11.1796 17.2003 10.9996 17.0203 10.9996 16.8003V11.2003C10.9996 10.9803 11.1796 10.8003 11.3996 10.8003H12.1996V8.80033C12.1996 8.58033 12.3796 8.40033 12.5996 8.40033C12.8196 8.40033 12.9996 8.58033 12.9996 8.80033V10.8003H13.7996C14.0196 10.8003 14.1996 10.9803 14.1996 11.2003ZM19.3996 6.40033V13.6003C19.3996 13.8203 19.2196 14.0003 18.9996 14.0003H18.1996V16.0003C18.1996 16.2203 18.0196 16.4003 17.7996 16.4003C17.5796 16.4003 17.3996 16.2203 17.3996 16.0003V14.0003H16.5996C16.3796 14.0003 16.1996 13.8203 16.1996 13.6003V6.40033C16.1996 6.18033 16.3796 6.00033 16.5996 6.00033H17.3996V4.40033C17.3996 4.18033 17.5796 4.00033 17.7996 4.00033C18.0196 4.00033 18.1996 4.18033 18.1996 4.40033V6.00033H18.9996C19.2196 6.00033 19.3996 6.18033 19.3996 6.40033ZM3.79961 13.6003V16.8003C3.79961 17.0203 3.61961 17.2003 3.39961 17.2003H2.59961V19.2003C2.59961 19.4203 2.41961 19.6003 2.19961 19.6003C1.97961 19.6003 1.79961 19.4203 1.79961 19.2003V17.2003H0.999609C0.779609 17.2003 0.599609 17.0203 0.599609 16.8003V13.6003C0.599609 13.3803 0.779609 13.2003 0.999609 13.2003H1.79961V11.2003C1.79961 10.9803 1.97961 10.8003 2.19961 10.8003C2.41961 10.8003 2.59961 10.9803 2.59961 11.2003V13.2003H3.39961C3.61961 13.2003 3.79961 13.3803 3.79961 13.6003ZM8.99961 2.80033V11.2003C8.99961 11.4203 8.81961 11.6003 8.59961 11.6003H7.79961V13.6003C7.79961 13.8203 7.61961 14.0003 7.39961 14.0003C7.17961 14.0003 6.99961 13.8203 6.99961 13.6003V11.6003H6.19961C5.97961 11.6003 5.79961 11.4203 5.79961 11.2003V2.80033C5.79961 2.58033 5.97961 2.40033 6.19961 2.40033H6.99961V0.80033C6.99961 0.58033 7.17961 0.40033 7.39961 0.40033C7.61961 0.40033 7.79961 0.58033 7.79961 0.80033V2.40033H8.59961C8.81961 2.40033 8.99961 2.58033 8.99961 2.80033Z" fill="#52525B"/>
</svg>
