<svg width="20" height="20" viewBox="0 0 20 20" fill="none" xmlns="http://www.w3.org/2000/svg">
<path fill-rule="evenodd" clip-rule="evenodd" d="M0.0273438 9.25C0.410869 4.07745 4.72909 0 9.99964 0C9.16878 -2.21785e-07 8.42902 0.364208 7.82044 0.921127C7.21492 1.47525 6.70322 2.24878 6.28934 3.16315C5.87303 4.08292 5.54964 5.15868 5.33077 6.32611C5.15531 7.26194 5.04854 8.24852 5.01295 9.25H0.0273438ZM0.0273438 10.75H5.01295C5.04854 11.7515 5.15531 12.7381 5.33077 13.6739C5.54964 14.8413 5.87303 15.9171 6.28934 16.8368C6.70322 17.7512 7.21492 18.5247 7.82044 19.0789C8.42902 19.6358 9.16878 20 9.99964 20C4.72909 20 0.410869 15.9226 0.0273438 10.75Z" fill="#11181C"/>
<path d="M9.99964 1.39535C9.72464 1.39535 9.36936 1.51236 8.95625 1.89042C8.54008 2.27126 8.12345 2.86815 7.75536 3.68137C7.38971 4.4892 7.0928 5.46441 6.88848 6.55419C6.72757 7.41242 6.62775 8.32219 6.59272 9.25H13.4066C13.3715 8.32219 13.2717 7.41242 13.1108 6.5542C12.9065 5.46441 12.6096 4.48921 12.2439 3.68137C11.8758 2.86815 11.4592 2.27126 11.043 1.89042C10.6299 1.51236 10.2747 1.39535 9.99964 1.39535Z" fill="#11181C"/>
<path d="M6.88848 13.4458C7.0928 14.5356 7.38971 15.5108 7.75536 16.3186C8.12345 17.1319 8.54008 17.7287 8.95624 18.1096C9.36936 18.4876 9.72464 18.6047 9.99964 18.6047C10.2746 18.6047 10.6299 18.4876 11.043 18.1096C11.4592 17.7287 11.8758 17.1319 12.2439 16.3186C12.6096 15.5108 12.9065 14.5356 13.1108 13.4458C13.2717 12.5876 13.3715 11.6778 13.4066 10.75H6.59272C6.62775 11.6778 6.72757 12.5876 6.88848 13.4458Z" fill="#11181C"/>
<path d="M9.99964 0C10.8305 2.21785e-07 11.5703 0.364209 12.1788 0.921128C12.7844 1.47525 13.2961 2.24878 13.7099 3.16315C14.1263 4.08292 14.4496 5.15868 14.6685 6.32612C14.844 7.26194 14.9507 8.24852 14.9863 9.25H19.9719C19.5884 4.07745 15.2702 0 9.99964 0Z" fill="#11181C"/>
<path d="M14.6685 13.6739C14.4496 14.8413 14.1263 15.9171 13.7099 16.8368C13.2961 17.7512 12.7844 18.5247 12.1788 19.0789C11.5703 19.6358 10.8305 20 9.99964 20C15.2702 20 19.5884 15.9226 19.9719 10.75H14.9863C14.9507 11.7515 14.844 12.7381 14.6685 13.6739Z" fill="#11181C"/>
</svg>
