<svg width="1000" height="275" viewBox="0 0 1000 275" fill="none" xmlns="http://www.w3.org/2000/svg">
<rect width="275" height="275" rx="48.4" fill="#006FEE"/>
<path d="M136.229 36.8423H138.994L141.264 37.1385L142.943 37.6322L144.128 38.0271L145.707 38.817L147.188 39.7056L148.472 40.6929L149.459 41.5815L150.447 42.5688L151.335 43.6549L152.125 44.8397L153.014 46.4194L153.409 47.2093L154.198 49.5789L154.593 51.6523L154.692 54.3181L154.593 55.9966L154.198 58.07L153.705 59.6497L153.014 61.3282L152.52 62.2168L151.73 63.5003L150.743 64.7838L149.953 65.6724L150.052 66.1661L151.434 67.3509L152.52 68.3382L153.507 69.1281L154.495 70.0167L155.581 70.9053L157.062 72.1888L158.049 73.0774L159.036 73.8673L160.024 74.7559L161.11 75.6445L162.492 76.8293L163.578 77.8166L164.565 78.6065L165.553 79.4951L166.639 80.3837L167.527 81.1736L168.614 82.0622L169.601 82.9508L170.687 83.8394L171.872 84.9254L172.958 85.814L174.34 86.9988L175.327 87.8874L176.315 88.6773L177.401 89.6646L178.487 90.5532L179.869 91.738L180.856 92.6266L181.844 93.4165L183.029 94.5026L184.411 95.5886L185.201 96.2798V96.4772L185.596 96.6747L186.879 97.7608L187.175 97.9582V98.1557L187.57 98.3532L187.965 98.6494V98.8468L188.36 99.0443L189.742 100.229L189.94 100.328V100.525L190.335 100.723L190.73 101.019V101.216L191.125 101.414L192.408 102.5L193.494 103.389V103.586L193.889 103.783L195.272 104.968L195.469 105.067V105.264L195.864 105.462L196.259 105.758V105.956L196.654 106.153L197.049 106.449V106.647L197.444 106.844L198.234 107.437V107.634L198.628 107.832L199.023 108.128V108.325L199.418 108.523L200.801 109.707L200.998 109.806V110.004L201.393 110.201L201.788 110.497V110.695L202.183 110.892L202.578 111.188V111.386L202.973 111.583L203.763 112.176V112.373L204.158 112.571L205.145 113.459L205.342 113.558V113.756L205.737 113.953L206.527 114.545V114.743L206.922 114.94L207.909 115.829L208.107 115.928V116.125L208.502 116.323L209.884 117.507L210.871 118.297V118.495L211.266 118.692L212.649 119.877L213.438 120.568L213.636 120.766H214.228L215.216 120.173L216.697 119.581L217.289 119.285L219.659 118.692L220.843 118.495H224.694L227.162 118.988L228.545 119.383L229.729 119.877L231.309 120.667L233.383 122.049V122.247L233.778 122.444L234.765 123.333L235.456 124.123L235.95 124.616L237.134 126.196L238.023 127.776L238.714 129.355L239.109 130.441L239.504 131.824L239.8 133.897V137.057L239.405 139.426L238.912 141.105L238.221 142.783L237.134 144.758L235.851 146.436L234.962 147.424L234.271 148.016L233.778 148.51L233.383 148.707V148.905L231.013 150.484L230.322 150.781L229.335 151.274L227.854 151.768L226.274 152.163L224.694 152.459H220.942L218.77 152.064L217.19 151.57L215.709 150.978L214.525 150.386L214.228 150.188L213.537 150.287L212.945 150.781L212.451 151.274L211.069 152.459H210.871V152.656L210.279 153.15H210.082V153.348L208.995 154.236L208.304 154.829H208.107V155.026L207.514 155.52H207.317V155.717L206.725 156.211H206.527V156.408L205.54 157.198H205.342V157.396L204.75 157.889H204.552V158.087L203.96 158.58H203.763V158.778L202.775 159.568H202.578V159.765L201.985 160.259H201.788V160.456L201.196 160.95H200.998V161.148L200.011 161.937L199.221 162.629H199.023L198.925 162.925L197.839 163.813L196.456 164.998H196.259L196.16 165.294L195.666 165.689H195.469V165.887L194.482 166.677L193.692 167.368H193.494L193.396 167.664L192.902 168.059H192.704L192.606 168.355L191.223 169.441L190.927 169.737H190.73L190.631 170.034L190.137 170.428H189.94V170.626L188.953 171.416L188.163 172.107H187.965L187.867 172.403L187.373 172.798H187.175V172.996L186.188 173.785L185.398 174.477H185.201L185.102 174.773L184.016 175.661L182.634 176.846L181.548 177.833L180.462 178.623L179.869 178.821L178.882 178.722L178.092 178.228L177.598 177.241V176.352L177.993 175.563L179.079 174.575H179.277V174.378L179.869 173.884H180.067V173.687L180.659 173.193H180.856V172.996L181.844 172.206H182.041V172.008L182.634 171.515H182.831V171.317L183.424 170.823H183.621V170.626L184.608 169.836L185.398 169.145H185.596V168.947L186.188 168.454H186.386V168.256L187.373 167.466H187.57V167.269L188.163 166.775H188.36L188.459 166.479L188.953 166.084H189.15V165.887L190.137 165.097L190.927 164.406H191.125V164.208L191.717 163.715H191.915V163.517L192.902 162.727L193.692 162.036H193.889L193.988 161.74L195.074 160.851L196.456 159.667L197.246 158.975H197.444L197.542 158.679L198.53 157.889L199.517 157.001L200.011 156.606H200.208V156.408L201.294 155.52L202.282 154.631L203.368 153.743L204.849 152.459L205.836 151.57L206.823 150.781L207.811 149.892L208.897 149.003L210.279 147.819L210.575 147.522L210.279 147.029L209.489 146.14L209.193 145.745V145.548H208.995L208.008 143.968L207.317 142.684L206.527 142.783L204.158 143.573L201.689 144.363L199.813 144.955L193.692 146.93L189.051 148.411L186.386 149.3L184.707 149.793L181.943 150.682L180.067 151.274L173.945 153.249L169.305 154.73L166.639 155.618L164.96 156.112L162.986 156.803L162.196 157.001L159.135 157.988L156.371 158.877L154.495 159.469L154.396 160.062L154.593 160.95L154.692 162.629V163.715L154.495 165.986L154.001 168.059L153.606 169.244L153.014 170.527L152.421 171.613L151.434 173.193L150.249 174.575L148.768 176.056L147.485 177.044L146.497 177.735L144.128 178.92L141.758 179.709L139.783 180.104L139.685 180.302V200.049L140.277 200.246L142.153 200.641L143.733 201.135L145.016 201.727L146.102 202.319L146.596 202.418L147.682 201.529L148.571 200.74L149.657 199.851L150.842 198.765L151.829 197.975L152.915 196.988L154.001 196.099L155.383 194.914L156.371 194.026L157.358 193.236L158.444 192.249L159.53 191.36L160.912 190.175L161.998 189.188L162.887 188.497L164.072 187.411L165.158 186.522L165.454 186.423V186.226L166.738 185.238L167.824 185.14L168.515 185.337L169.206 185.93L169.502 186.522L169.601 187.312L169.206 188.299L168.515 188.99L167.429 189.879L166.54 190.669L165.454 191.557L164.269 192.643L163.282 193.433L162.196 194.421L161.11 195.309L159.728 196.494L158.641 197.481L157.753 198.173L156.667 199.16L155.581 200.049L154.198 201.233L153.211 202.122L152.224 202.912L151.039 203.998L149.953 204.886L150.052 205.38L150.447 205.775V205.973H150.644L151.928 207.75L152.619 208.836L153.507 210.81L154.001 212.193L154.495 214.266L154.593 214.957L154.692 217.623L154.593 219.301L154.198 221.375L153.705 222.955L153.211 224.139L152.421 225.62L151.533 227.003L150.743 228.089L149.064 229.767H148.867L148.768 230.063L147.188 231.248L145.609 232.236L143.733 233.025L142.647 233.42L141.166 233.815L138.994 234.112H136.229L133.761 233.717L132.28 233.322L131.49 233.025L129.811 232.236L128.725 231.643L127.738 230.952L126.553 230.063L124.48 227.99L123.69 226.904L122.9 225.62L122.505 224.929L122.11 224.139L121.419 222.461L120.925 220.486L120.629 218.61V215.55L120.827 214.266V213.575L120.234 213.378L116.877 211.798L115.298 211.008L114.508 210.712L113.323 210.119L111.644 209.329L109.374 208.243L107.399 207.355L105.819 206.565L104.141 205.775L102.363 204.985L101.08 204.294L100.389 203.998L98.0192 202.912L96.6369 202.221L94.8597 201.431L93.4775 200.74L89.9231 199.061L87.6522 197.975L86.0725 197.185L85.2826 196.889L83.7029 196.099L82.1231 195.408L79.3586 194.026L78.6675 193.73L77.6801 193.335L77.4827 193.927L76.6928 195.507L75.7055 196.988L74.9156 197.975L73.8295 199.16L72.546 200.345L71.2625 201.233L69.584 202.221L67.5106 203.109L65.4372 203.702L63.1663 203.998H60.698L58.4271 203.702L56.6499 203.208L54.9715 202.616L52.9968 201.529L51.7133 200.641L50.6272 199.752L49.6399 198.864L48.9487 198.074L47.9614 196.79L47.0728 195.408L46.2829 193.828L45.888 192.841L45.5918 192.15L45.1969 190.57L44.9007 188.595V185.436L45.2956 183.066L45.6905 181.585L46.1842 180.302L46.9741 178.722L47.7639 177.439L48.7513 176.155L49.7386 175.069L50.2323 174.575L51.3183 173.588L52.3057 172.897L53.8854 171.91L55.3664 171.218L56.9461 170.626L58.5259 170.231L59.7107 170.034L59.8094 169.935V101.019L59.5132 100.821L58.1309 100.624L56.7487 100.229L54.8727 99.538L53.3917 98.7481L52.0095 97.8595L51.0221 97.0696L49.8373 95.9836L49.0475 95.1937L47.9614 93.8114L47.1715 92.6266L46.5791 91.4418L45.9867 90.1583L45.4931 88.6773L45.0981 86.9001L44.9007 85.6166V82.3584L45.2956 79.9888L45.7893 78.409L46.1842 77.323L46.9741 75.6445L48.0601 73.966L48.2576 73.6698H48.4551L48.6525 73.2749L49.3437 72.6825L49.8373 72.5838H50.5285L51.3183 72.88L51.812 72.7812L52.7006 71.9914L54.4778 70.8066V69.7205L54.774 68.8319L55.2677 68.3382L56.0575 67.9433H56.8474L57.6373 68.3382L58.1309 68.8319L58.3284 69.2268L60.5005 68.9306L62.0803 68.8319L62.7714 67.7458L63.5613 67.1534H64.9435L66.7207 67.5484L67.5106 67.8446L68.7941 68.3382L70.2751 69.1281L71.1637 69.6218L72.6447 70.7078L73.6321 71.5964L74.7181 72.6825V72.88H74.9156L76.1991 74.6572L77.0877 76.1382L77.6801 77.4217V77.6192L78.8649 77.1255L80.3459 76.4344L81.7282 75.7432L83.7029 74.8546L85.2826 74.0648L86.8623 73.3736L88.4421 72.5838L90.1205 71.7939L92.3914 70.7078L94.761 69.6218L96.3407 68.8319L97.9205 68.1408L100.685 66.7585L101.376 66.4623L103.746 65.3762L105.128 64.6851L106.905 63.8952L108.287 63.2041L110.163 62.3155L111.842 61.5256L114.113 60.4396L114.903 60.0446L115.594 59.7484L117.47 58.8598L119.642 57.8725L120.629 57.3788H120.827L120.728 56.0953L120.629 55.4042V52.3434L121.024 49.9738L121.518 48.2954L122.209 46.5182L122.801 45.4321L123.69 44.0498L124.677 42.7663L125.27 42.0752L126.059 41.384L126.751 40.6929L128.429 39.5081L129.515 38.817L131.095 38.1258L132.28 37.6322L134.156 37.1385L136.229 36.8423ZM121.913 61.1307L121.222 61.5256L120.432 61.8218L118.852 62.6117L117.272 63.3028L114.508 64.6851L113.817 64.9813L112.533 65.5737L110.262 66.6598L108.287 67.5484L106.905 68.2395L104.733 69.2268L103.351 69.918L101.87 70.6091L100.29 71.399L99.5989 71.6952L97.2293 72.7812L95.8471 73.4724L94.0699 74.2622L92.7863 74.9534L92.0952 75.2496L90.2193 76.1382L88.0471 77.1255L86.4674 77.9154L84.8877 78.6065L83.3079 79.3964L81.6295 80.1862L80.1485 80.8774L78.9637 81.4698L78.7662 81.6672L78.8649 84.333L78.6675 87.1963L79.5561 87.5912L82.913 88.6773L85.4801 89.4672L88.4421 90.4545L90.4167 91.0469L93.3787 92.0342L95.5509 92.7254L99.8951 94.1076L103.252 95.1937L105.424 95.8848L109.768 97.2671L113.125 98.3532L114.804 98.8468L116.877 99.538L119.642 100.427L121.715 101.118L122.209 101.019L122.604 100.427L123.196 99.3405L123.986 98.1557L124.776 97.1684L125.27 96.576L125.763 96.0823L126.849 95.095L128.528 93.9102L130.009 93.0216L131.095 92.5279L133.464 91.738L135.439 91.3431L135.735 90.8494L135.637 70.8066L135.538 70.7078L133.07 70.2142L130.799 69.4243L128.627 68.2395L127.244 67.2522L125.961 66.1661L125.072 65.2775L124.184 64.1914L123.492 63.2041L122.9 62.2168L122.406 61.3282L121.913 61.1307ZM146.3 68.437L145.312 69.0294L143.437 69.8192L141.363 70.4116L139.783 70.7078L139.586 70.9053V91.0469L139.783 91.3431L142.548 91.9355L143.733 92.3304L144.918 92.9228L145.411 93.4165L145.609 94.1076V95.3912L146.892 96.3785L147.978 97.2671L148.373 97.662L149.064 97.5633L149.361 97.4646H150.15L150.94 97.7608L151.434 98.2544L151.73 99.0443L151.631 99.9329L151.138 100.723L150.94 100.92L151.039 101.414L151.73 102.895L152.224 104.475L152.421 104.672L153.507 104.87L154.1 105.363L154.495 106.054L154.593 108.72L154.495 110.3L154.396 111.386L154.791 111.682L156.272 112.176L157.95 112.669L162.393 114.15L164.171 114.644L167.429 115.73L175.426 118.297L177.302 118.89L180.067 119.778L183.424 120.864L185.596 121.555L189.94 122.938L193.297 124.024L195.469 124.715L199.813 126.097L203.17 127.183L205.342 127.874L206.823 128.368H207.317L207.811 127.578L208.206 126.788L208.699 126.097L209.094 125.406L210.476 123.826L210.674 123.431L210.18 122.938L208.798 121.753L207.712 120.864L206.527 119.778L205.54 118.988L204.454 118.001L203.368 117.112L201.985 115.928L200.899 114.94L199.912 114.15L198.826 113.163L197.74 112.275L196.753 111.485L196.259 110.991L194.877 109.806H194.679V109.609L194.087 109.115H193.889V108.918L192.803 108.029L192.112 107.437H191.915V107.239L191.223 106.745L190.73 106.252L189.348 105.067H189.15V104.87L188.459 104.376L187.965 103.882L187.57 103.685V103.487L186.583 102.697H186.386V102.5L185.793 102.006H185.596V101.809L185.003 101.315H184.806V101.118L183.818 100.328H183.621V100.13L183.029 99.6367H182.831V99.4392L182.239 98.9456H182.041V98.7481L181.054 97.9582H180.856V97.7608L180.264 97.2671H180.067V97.0696L179.474 96.576H179.277V96.3785L178.289 95.5886H178.092V95.3912L177.5 94.8975H177.401L177.302 94.7L176.71 94.2064H176.512V94.0089L175.525 93.219L174.735 92.5279H174.538L174.439 92.2317L173.945 91.8368H173.748V91.6393L172.76 90.8494L171.97 90.1583H171.773L171.674 89.8621L170.588 88.9735L169.206 87.7887H169.008L168.91 87.4925L168.416 87.0976H168.219V86.9001L167.133 86.0115L166.145 85.1229L165.059 84.2343L163.578 82.9508L162.591 82.0622L161.603 81.2723L160.616 80.3837L159.53 79.4951L158.049 78.2116L157.062 77.323L156.074 76.5331L155.087 75.6445L154.001 74.7559L152.52 73.4724L151.533 72.5838L150.545 71.7939L149.558 70.9053L148.472 70.0167L146.991 68.7332L146.596 68.437H146.3ZM77.4827 91.0469L77.1865 91.3431L76.4953 92.6266L75.8042 93.7127L75.6067 94.2064H75.4093L75.1131 94.7L75.3105 95.1937L76.8903 96.7734L77.3839 97.3658L79.1611 99.143L79.8523 99.9329L80.9383 101.019L81.1358 101.315H81.3333L81.5307 101.71H81.7282L81.9257 102.105L83.2092 103.389L83.8016 104.08L85.5788 105.857L86.0725 106.449L87.8497 108.226L88.5408 109.016L89.6269 110.102L89.8243 110.399H90.0218L90.2193 110.794L91.8977 112.472L92.4901 113.163L94.6623 115.335L95.3534 116.125L96.7357 117.507L97.4268 118.297L98.3154 119.186L98.5129 119.482H98.7103L98.9078 119.877L100.586 121.555L101.179 122.247L103.351 124.419L104.042 125.209L105.424 126.591L106.115 127.381L107.004 128.269L107.201 128.566H107.399L107.596 128.96H107.794L107.991 129.355L109.67 131.034L110.361 131.824L111.151 132.614L111.644 132.515L112.533 131.528L114.113 129.948V129.75L114.508 129.553L115.199 128.763L116.384 127.578L117.075 126.788L118.161 125.702V125.505L118.457 125.406L119.148 124.616L120.925 122.839V122.642L121.222 122.543L121.715 121.95L123.986 119.68V119.482L124.381 119.285V118.791L123.492 117.606L122.703 116.323L122.011 114.743L121.518 113.558L120.925 111.188L120.728 109.707V106.745L120.925 105.166L120.827 104.87L117.865 103.882L116.186 103.389L114.113 102.697L110.953 101.71L108.584 100.92L107.004 100.427L104.536 99.6367L101.08 98.5506L98.1179 97.5633L96.4395 97.0696L91.9965 95.5886L90.318 95.095L88.837 94.6013L87.2573 94.1076L85.7763 93.614L84.0978 93.1203L79.6548 91.6393L77.9763 91.1456L77.4827 91.0469ZM71.9536 97.662L70.5713 98.5506L68.8929 99.4392L66.8195 100.229L65.2397 100.624L64.0549 100.821L63.8575 101.118V169.836L64.0549 170.132L66.0296 170.527L67.6093 171.021L69.0903 171.613L70.2751 172.206L72.0523 173.391L72.546 173.193L73.4346 172.206L74.6194 171.021V170.823L74.9156 170.725L75.6067 169.935L76.8903 168.651L77.5814 167.861L78.6675 166.775V166.578L78.9637 166.479L79.6548 165.689L81.7282 163.616L82.2219 163.023L84.4927 160.753V160.555L84.7889 160.456L85.4801 159.667L86.7636 158.383L87.4547 157.593L88.9357 156.112L89.4294 155.52L91.3053 153.644V153.446L91.6015 153.348L92.0952 152.755L94.3661 150.484V150.287L94.6623 150.188L95.3534 149.398L96.6369 148.115L97.3281 147.325L98.4141 146.239V146.041L98.7103 145.943L99.4015 145.153L101.475 143.079L101.969 142.487L104.239 140.216V140.019L104.634 139.821L105.325 139.031L106.51 137.846L107.201 137.057L108.485 135.773L108.386 135.279L106.313 133.206L105.72 132.515L103.548 130.343L102.857 129.553L101.475 128.171L100.784 127.381L99.8951 126.492L99.6977 126.196H99.5002L99.3027 125.801L97.6243 124.123L97.0319 123.431L94.8597 121.259L94.1686 120.469L92.7863 119.087L92.0952 118.297L91.2066 117.409L91.0091 117.112H90.8117L90.6142 116.718H90.4167L90.2193 116.323L88.837 114.94L88.3433 114.348L86.5661 112.571L86.0725 111.978L83.9991 109.905L83.3079 109.115L82.5181 108.325L81.8269 107.535L80.1485 105.857L79.6548 105.264L77.4827 103.092L76.7915 102.302L75.3105 100.821L74.6194 100.032L73.8295 99.2418L73.1384 98.4519L72.3485 97.662H71.9536ZM153.112 115.335L152.717 115.928L152.125 117.112L151.434 118.1L150.348 119.482L148.867 120.963L147.781 121.852L146.596 122.642L145.214 123.431L144.128 123.925L142.054 124.616L140.178 125.011L139.388 125.11H135.834L133.563 124.715L131.194 123.925L129.515 123.135L128.034 122.148L127.639 121.852L127.146 121.95L125.961 123.135L125.467 123.728L123.196 125.998V126.196L122.9 126.295L122.209 127.085L120.629 128.664L119.938 129.454L118.753 130.639L118.062 131.429L116.384 133.107V133.305L116.087 133.403L115.594 133.996L114.211 135.378V135.872L116.087 137.748L116.285 138.044H116.482L116.68 138.439L118.358 140.117L118.951 140.808L120.728 142.586L121.222 143.178L122.9 144.857L123.591 145.646L124.381 146.436L124.973 147.127H125.171L125.368 147.522L127.244 149.398L127.935 149.3V149.102L128.429 148.905L129.515 148.213L131.194 147.424L132.28 147.029L133.464 146.634L135.834 146.239H139.487L141.758 146.634L144.424 147.522L146.102 148.411L147.386 149.201L147.88 149.596H148.077V149.793L149.064 150.583L150.447 151.965L151.434 153.249L152.421 154.73L152.915 155.618L153.31 155.717L156.864 154.532L158.543 154.039L161.9 152.953L168.021 150.978L172.662 149.497L174.241 149.003L177.894 147.819L182.535 146.338L186.287 145.153L189.051 144.264L191.421 143.474L193.099 142.981L197.542 141.5L199.32 141.006L201.294 140.315L202.973 139.821L205.342 139.031L205.836 138.834L206.033 138.636L205.836 135.971V134.983L206.033 132.317L205.737 132.021L204.158 131.528L201.788 130.738L200.109 130.244L198.036 129.553L196.358 129.059L191.915 127.578L190.236 127.085L188.163 126.393L186.484 125.9L184.411 125.209L181.646 124.32L179.573 123.629L177.796 123.135L174.538 122.049L171.773 121.161L169.7 120.469L168.021 119.976L161.9 118.001L158.543 116.915L156.371 116.224L153.902 115.434L153.112 115.335ZM111.249 138.538L108.979 140.808L108.386 141.5L106.214 143.672L105.72 144.264L103.45 146.535V146.732L103.055 146.93V147.127L102.758 147.226L102.067 148.016L100.882 149.201L100.191 149.991L99.0065 151.175L98.3154 151.965L96.3407 153.94L95.8471 154.532L93.5762 156.803V157.001L93.1813 157.198V157.396L92.8851 157.494L92.1939 158.284L91.1079 159.37L90.4167 160.16L89.1332 161.444L88.4421 162.234L86.8623 163.813L86.3687 164.406L85.7763 164.899L85.0851 165.689L83.7029 167.072V167.269L83.3079 167.466V167.664L83.0117 167.763L82.3206 168.553L81.1358 169.737L80.4447 170.527L79.2599 171.712L78.5687 172.502L76.5941 174.477L76.1004 175.069L75.2118 175.958V176.451L75.6067 176.945L76.2979 177.932L76.8903 179.018L77.2852 179.808L77.6801 179.907L79.1611 179.413L80.8396 178.92L83.3079 178.13L85.2826 177.439L86.9611 176.945L88.4421 176.451L90.0218 175.958L91.5028 175.464L93.1813 174.97L97.6243 173.489L99.3027 172.996L102.66 171.91L108.189 170.132L110.657 169.342L112.237 168.849L118.654 166.775L120.53 166.183L120.827 165.986L120.728 164.505V161.542L121.123 159.173L121.715 157.297L122.406 155.618L122.999 154.631L123.492 153.743L124.48 152.36L124.282 151.965L123.492 151.077L123.097 150.682H122.9L122.703 150.287L121.32 148.905L120.827 148.312L119.049 146.535L118.358 145.745L117.272 144.659L117.075 144.363H116.877L116.68 143.968L115.001 142.289L114.409 141.598H114.211L114.014 141.203L112.632 139.821L112.138 139.229L111.644 138.735L111.249 138.538ZM121.419 169.935L118.457 170.922L115.001 172.008L112.237 172.897L109.077 173.884L104.931 175.266L103.252 175.76L99.8951 176.846L93.7737 178.821L88.837 180.401L86.4674 181.19L84.7889 181.684L82.7155 182.375L81.0371 182.869L78.7662 183.659L78.6675 183.758L78.8649 186.522L78.7662 189.287L79.0624 189.583L80.1485 190.076L82.4193 191.163L83.7029 191.755L84.8877 192.347L85.6775 192.643L87.2573 193.433L89.6269 194.519L92.3914 195.902L93.0825 196.198L94.9585 197.087L97.1306 198.074L99.8951 199.456L100.586 199.752L101.87 200.345L104.141 201.431L106.115 202.319L107.498 203.01L109.67 203.998L111.052 204.689L112.533 205.38L114.113 206.17L114.804 206.466L117.173 207.552L118.556 208.243L120.333 209.033L120.827 209.329L121.616 209.626L122.11 209.823L122.505 209.527L123.097 208.342L123.887 207.157L124.776 206.071L125.862 204.886L126.849 203.998L128.627 202.714L130.009 201.924L131.095 201.431L133.07 200.74L135.538 200.246L135.637 200.147L135.735 180.401L135.538 180.006L133.168 179.512L131.095 178.821L129.219 177.833L127.935 177.044L126.652 176.056L126.158 175.563H125.961L125.862 175.266L125.368 174.773H125.171L124.973 174.378L124.184 173.489L123.097 171.91L122.505 170.823L122.11 169.935H121.419Z" fill="white"/>
<path d="M145.511 94.9978L145.709 95.3927L146.893 96.2813L147.979 97.1699L148.374 97.5649L149.065 97.4661L149.362 97.3674H150.152L150.941 97.6636L151.534 98.256L151.83 99.0459L151.731 99.9345L151.238 100.724L151.04 100.922L151.139 101.415L151.83 102.896L152.324 104.476L152.62 104.772H152.027L151.139 105.365L150.744 106.155V108.82L150.546 110.795L150.152 112.276L149.263 114.35L148.473 115.633L147.683 116.62L146.795 117.608L146.005 118.299L145.709 118.398V118.595L144.03 119.681L142.352 120.471L141.266 120.866L139.291 121.261H136.033L134.157 120.866L132.478 120.274L131.096 119.582L130.01 118.891L128.924 118.003L127.542 116.62L126.653 115.337L125.764 113.856L125.073 111.98L124.58 109.709V106.747L125.073 104.476L125.666 102.896L126.456 101.317L127.344 100.132L128.233 99.1446L128.726 98.6509L129.714 97.7623L131.195 96.775L132.38 96.1826L133.959 95.5902L135.835 95.1953L137.81 95.0965L140.081 95.294L141.66 95.6889L143.24 96.2813H144.228L144.919 95.8864L145.215 95.6889L145.511 94.9978Z" fill="white"/>
<path d="M56.0547 67.9452H56.8446L57.6344 68.3401L58.1281 68.8338L58.3256 69.2287L60.4977 68.9325L62.0774 68.8338L62.2749 68.7351L62.3736 69.7224L62.8673 70.5123L63.7559 71.0059L65.928 71.4996L67.409 72.092L68.9888 72.9806L69.4824 73.2768V73.4743L69.9761 73.6717L71.2596 74.8565L72.1482 75.8439L73.2343 77.4236L74.0242 79.0033L74.5178 80.4843L74.814 81.6691L74.9128 82.6565V85.3223L74.7153 86.7045L74.3204 88.1855L73.8267 89.3703L72.9381 91.0488L71.9508 92.3323L70.9634 93.4184L70.1736 94.1095L68.6926 95.1956L67.5078 95.788L66.323 96.2817L64.7432 96.7753L63.4597 96.9728L61.6825 97.0715L59.8066 96.8741L58.4243 96.5779L56.9433 96.0842L55.3636 95.2943L54.2775 94.6032L52.994 93.5171L52.0066 92.5298L51.2168 91.5425L50.3282 90.1602L49.5383 88.2843L49.1434 87.0007L48.8472 85.1248V82.7552L49.2421 80.5831L49.637 79.2995L50.3282 77.9173L50.9206 76.8312L51.8092 75.6464L52.1054 74.8565L52.0066 73.9679L51.7104 73.3755L51.3155 72.9806L51.9079 72.6844L53.0927 71.6971L54.475 70.8085V69.7224L54.7712 68.8338L55.2648 68.3401L56.0547 67.9452Z" fill="white"/>
<path d="M137.415 40.6945L139.192 40.7932L141.167 41.1881L142.352 41.5831L143.339 41.978L145.314 43.1628L146.103 43.7552L147.683 45.3349L148.868 47.0134L149.46 48.0007L149.954 49.1855L150.349 50.4691L150.645 51.7526L150.744 52.7399V55.0108L150.546 56.3931L150.152 57.8741L149.757 59.0589L148.967 60.5399L148.078 61.8234L147.486 62.6133H147.288L147.091 63.0082L146.4 63.6993L144.524 65.0816L142.845 65.9702L141.364 66.4639L140.278 66.7601L138.6 66.9575H136.625L134.65 66.6613L133.071 66.1677L131.886 65.674L130.602 64.8841L129.911 64.4892L128.43 63.2057L127.443 62.1196L126.554 60.9348L125.962 59.8487L125.271 58.269L124.975 57.4791L124.58 55.5045V52.345L124.975 50.3703L125.567 48.6919L126.258 47.3096L127.147 46.0261L127.838 45.1375L128.43 44.4463L129.516 43.5577L130.701 42.6691L132.281 41.8793L133.466 41.3856L135.045 40.9907L136.131 40.7932L137.415 40.6945Z" fill="white"/>
<path d="M137.316 149.991L139.488 150.09L141.364 150.485L142.549 150.88L144.425 151.867L145.709 152.756L146.893 153.842L147.782 154.73L148.671 155.915L149.263 157.001L149.855 158.186L150.25 159.272L150.645 160.951L150.744 162.037V164.209L150.546 165.69L150.152 167.27L149.658 168.454L149.065 169.639L148.374 170.725L147.288 172.009L146.103 173.194L144.721 174.181L143.339 174.971L142.549 175.366L140.871 175.859L139.39 176.156L137.316 176.254L135.835 176.156L133.959 175.761L132.774 175.366L131.195 174.576L129.911 173.786V173.588L129.516 173.391L128.529 172.502L128.035 172.009L127.147 171.021L126.159 169.54L125.271 167.566L124.975 166.776L124.58 164.801V161.543L124.975 159.47L125.567 157.989L126.357 156.409L127.344 155.027L128.233 154.039L128.726 153.546L129.714 152.657H129.911V152.46L131.886 151.275L133.169 150.781L133.861 150.485L135.835 150.09L137.316 149.991Z" fill="white"/>
<path d="M136.724 203.999H138.501L140.574 204.295L141.957 204.69L142.944 205.085L144.524 205.875L146.202 207.159L147.288 208.146L148.374 209.528L149.164 210.812L149.757 211.997L150.25 213.379L150.645 215.057L150.744 216.341V217.822L150.546 219.698L150.152 221.08L149.658 222.364L148.967 223.746L148.177 224.931L147.584 225.72L146.4 226.905L145.906 227.3H145.709V227.498L143.833 228.682L142.845 229.176L140.772 229.867L138.995 230.163H136.23L134.255 229.769L133.169 229.472L130.8 228.288L129.121 227.103L127.64 225.622L126.456 223.943L125.666 222.462L125.073 220.981L124.58 218.612V215.551L125.073 213.28L125.567 211.898L126.357 210.417L127.245 209.133L128.43 207.751L129.319 206.961L130.306 206.171L131.392 205.579L132.577 204.986L133.959 204.493L135.045 204.197L136.724 203.999Z" fill="white"/>
<path d="M221.343 122.444H224.206L225.786 122.74L226.872 123.036L228.156 123.53L229.34 124.123L230.624 125.011L231.611 125.801L232.895 127.085L233.783 128.368L234.376 129.355L235.067 130.935L235.561 132.515L235.857 134.49V136.464L235.462 138.834L234.771 140.808L233.981 142.289L232.993 143.672L232.796 143.968H232.599L232.401 144.363L231.315 145.449L229.834 146.535L228.748 147.127L227.464 147.72L226.28 148.115L224.206 148.51H221.442L218.973 148.016L217.591 147.522L216.11 146.732L214.827 145.844L213.543 144.758L212.852 143.968L211.865 142.684L211.173 141.5L210.68 140.414L210.285 139.327L209.89 137.649L209.791 136.859V134.095L210.087 132.416L210.581 130.836L211.075 129.652L211.865 128.269L212.951 126.887L213.74 125.998L214.827 125.11L215.814 124.419L217.196 123.629L218.48 123.135L219.27 122.839L221.343 122.444Z" fill="white"/>
<path d="M61.6825 173.884L63.4597 173.983L65.1382 174.279L67.409 175.069L68.2976 175.563L69.3837 176.254L70.6672 177.241L71.1609 177.735L72.1482 178.821L73.0368 180.104L74.0242 181.98L74.4191 183.066L74.814 184.745L74.9128 185.633V188.299L74.7153 189.78L74.2216 191.36L73.5305 193.038L72.6419 194.421L72.0495 195.309H71.852L71.6546 195.704L70.4698 196.889H70.2723V197.086L68.4951 198.271L67.0141 199.061L65.5331 199.555L64.3483 199.851L62.3736 200.048H61.2876L59.4116 199.851L57.3382 199.259L56.4496 198.864L55.2648 198.271L53.9813 197.383L53.6851 197.185V196.988L53.2902 196.79L52.3028 195.803L51.4142 194.816L50.4269 193.335L49.637 191.557L49.1434 189.879L48.8472 188.102V185.831L49.2421 183.56L49.9332 181.684L50.5256 180.499L51.2168 179.413L52.4016 178.031L53.3889 177.044L54.3762 176.254L56.0547 175.266L57.6344 174.575L59.1154 174.18L60.399 173.983L61.6825 173.884Z" fill="white"/>
<path d="M56.0602 67.9452H56.8501L57.64 68.3401L58.1336 68.8338L58.4298 69.5249V70.5123L58.1336 71.1047L57.4425 71.6971L57.1463 71.8945H55.8628L55.0729 71.4009L54.678 70.9072L54.4805 70.1173L54.5792 69.3275L54.7767 68.8338L55.2704 68.3401L56.0602 67.9452Z" fill="white"/>
<path d="M173.257 180.008L174.343 180.107L175.133 180.699L175.528 181.489V182.575L174.936 183.464L173.948 183.957H173.257L172.369 183.562L171.776 182.871L171.579 182.378V181.489L172.072 180.6L172.764 180.107L173.257 180.008Z" fill="white"/>
<path d="M149.362 97.3679H150.152L150.942 97.6641L151.534 98.2565L151.83 99.0464L151.731 99.935L151.238 100.725L150.744 101.12L150.053 101.317L149.263 101.219L148.572 100.922L147.881 99.935V98.6515L148.473 97.8616L148.769 97.5654L149.362 97.3679Z" fill="white"/>
<path d="M945.648 220.107C931.755 220.107 919.581 216.24 909.125 208.506C898.669 200.771 891.293 189.814 886.996 175.635L914.926 164.463C917.074 172.913 920.798 179.574 926.098 184.443C931.54 189.456 938.129 191.963 945.863 191.963C952.309 191.963 957.966 190.316 962.836 187.021C967.562 183.87 969.926 179.287 969.926 173.271C969.926 167.256 967.706 162.458 963.266 158.877C958.682 155.153 950.661 151.143 939.203 146.846L929.535 143.408C919.509 139.971 910.915 134.6 903.754 127.295C896.449 119.704 892.797 110.537 892.797 99.7949C892.797 91.4876 894.945 84.0397 899.242 77.4512C903.539 70.7194 909.555 65.4199 917.289 61.5527C925.31 57.5423 934.118 55.5371 943.715 55.5371C957.895 55.5371 969.138 58.903 977.445 65.6348C985.609 72.3665 991.195 80.1725 994.203 89.0527L968.207 100.01C966.488 94.9967 963.624 90.9147 959.613 87.7637C955.46 84.4694 950.303 82.8223 944.145 82.8223C937.556 82.8223 932.257 84.3262 928.246 87.334C924.092 90.3418 922.016 94.2806 922.016 99.1504C922.016 103.877 923.949 107.887 927.816 111.182C931.97 114.619 938.487 117.842 947.367 120.85L957.25 124.072C971.143 128.942 981.599 135.101 988.617 142.549C995.922 150.283 999.574 160.381 999.574 172.842C999.574 183.298 996.924 192.035 991.625 199.053C986.039 206.357 979.236 211.657 971.215 214.951C962.908 218.389 954.385 220.107 945.648 220.107Z" fill="#006FEE"/>
<path d="M754.644 209.365C741.753 201.774 731.87 191.82 724.995 179.502C717.834 166.755 714.253 152.861 714.253 137.822C714.253 122.926 717.834 109.105 724.995 96.3574C731.87 84.0397 741.753 74.0853 754.644 66.4941C767.105 59.1895 781.07 55.5371 796.538 55.5371C812.007 55.5371 825.972 59.1895 838.433 66.4941C851.323 74.0853 861.206 84.0397 868.081 96.3574C875.243 109.105 878.823 122.926 878.823 137.822C878.823 152.861 875.243 166.755 868.081 179.502C861.206 191.82 851.323 201.774 838.433 209.365C826.258 216.527 812.293 220.107 796.538 220.107C780.783 220.107 766.818 216.527 754.644 209.365ZM823.179 185.303C830.913 181.006 837.287 174.561 842.3 165.967C846.883 158.089 849.175 148.708 849.175 137.822C849.175 126.937 846.883 117.555 842.3 109.678C837.43 101.227 831.056 94.8535 823.179 90.5566C815.158 86.1165 806.278 83.8965 796.538 83.8965C786.799 83.8965 777.99 86.1165 770.112 90.5566C762.378 94.9967 756.076 101.37 751.206 109.678C746.48 117.842 744.116 127.223 744.116 137.822C744.116 148.421 746.48 157.803 751.206 165.967C756.219 174.561 762.521 181.006 770.112 185.303C777.99 189.743 786.799 191.963 796.538 191.963C806.278 191.963 815.158 189.743 823.179 185.303Z" fill="#006FEE"/>
<path d="M669.772 86.6895C666.048 82.9655 664.186 78.5254 664.186 73.3691C664.186 68.3561 666.048 63.9876 669.772 60.2637C673.353 56.6829 677.721 54.8926 682.877 54.8926C688.034 54.8926 692.402 56.6829 695.983 60.2637C699.564 63.8444 701.354 68.2129 701.354 73.3691C701.354 78.6686 699.564 83.1087 695.983 86.6895C692.402 90.2702 688.034 92.0605 682.877 92.0605C677.721 92.0605 673.353 90.2702 669.772 86.6895ZM668.483 104.521H697.272V216.67H668.483V104.521Z" fill="#006FEE"/>
<path d="M586.404 220.107C574.516 220.107 564.776 216.67 557.185 209.795C549.594 202.92 545.798 193.753 545.798 182.295C545.798 174.847 547.732 168.258 551.599 162.529C555.323 156.943 560.766 152.575 567.927 149.424C575.089 146.273 582.752 144.697 590.916 144.697C602.517 144.697 612.4 146.416 620.564 149.854V144.912C620.564 138.753 618.272 133.812 613.689 130.088C608.963 126.221 602.732 124.287 594.998 124.287C589.985 124.287 584.9 125.505 579.744 127.939C574.874 130.231 570.792 133.382 567.498 137.393L549.021 122.998C554.321 116.123 561.124 110.68 569.431 106.67C577.595 102.803 586.547 100.869 596.287 100.869C613.331 100.869 626.436 104.88 635.603 112.9C644.483 120.778 648.923 132.308 648.923 147.49V216.67H620.564V205.283H618.845C615.265 209.867 610.825 213.447 605.525 216.025C600.082 218.747 593.709 220.107 586.404 220.107ZM593.279 197.764C601.729 197.764 608.39 195.114 613.259 189.814C618.129 184.515 620.564 178.213 620.564 170.908C612.686 167.327 604.809 165.537 596.931 165.537C582.035 165.537 574.588 171.123 574.588 182.295C574.588 186.878 576.235 190.602 579.529 193.467C582.823 196.331 587.407 197.764 593.279 197.764Z" fill="#006FEE"/>
<path d="M470.595 104.521H497.45V119.346H499.384C502.105 114.046 506.402 109.678 512.274 106.24C518.003 102.803 524.449 101.084 531.61 101.084C536.766 101.084 541.493 101.943 545.79 103.662V132.451C542.066 131.019 538.7 129.945 535.692 129.229C532.541 128.512 529.677 128.154 527.098 128.154C518.361 128.154 511.558 131.234 506.688 137.393C501.819 143.551 499.384 151.357 499.384 160.811V216.67H470.595V104.521Z" fill="#006FEE"/>
<path d="M398.828 87.334H355V59.1895H472.52V87.334H428.691V216.67H398.828V87.334Z" fill="#006FEE"/>
</svg>
