<svg width="48" height="48" viewBox="0 0 48 48" fill="none" xmlns="http://www.w3.org/2000/svg">
<path d="M34 4H14C8.48 4 4 8.46 4 13.96V25.92V27.92C4 33.42 8.48 37.88 14 37.88H17C17.54 37.88 18.26 38.24 18.6 38.68L21.6 42.66C22.92 44.42 25.08 44.42 26.4 42.66L29.4 38.68C29.78 38.18 30.38 37.88 31 37.88H34C39.52 37.88 44 33.42 44 27.92V13.96C44 8.46 39.52 4 34 4ZM16 24C14.88 24 14 23.1 14 22C14 20.9 14.9 20 16 20C17.1 20 18 20.9 18 22C18 23.1 17.12 24 16 24ZM24 24C22.88 24 22 23.1 22 22C22 20.9 22.9 20 24 20C25.1 20 26 20.9 26 22C26 23.1 25.12 24 24 24ZM32 24C30.88 24 30 23.1 30 22C30 20.9 30.9 20 32 20C33.1 20 34 20.9 34 22C34 23.1 33.12 24 32 24Z" fill="#006FEE"/>
</svg>
