<svg width="48" height="50" viewBox="0 0 48 50" fill="none" xmlns="http://www.w3.org/2000/svg">
<path fill-rule="evenodd" clip-rule="evenodd" d="M8.2513 21.4607V16.6666C8.2513 7.96814 15.3028 0.916626 24.0013 0.916626C32.6998 0.916626 39.7513 7.96814 39.7513 16.6666V21.4607C42.3524 21.655 44.0462 22.1454 45.2844 23.3835C47.3346 25.4338 47.3346 28.7336 47.3346 35.3333C47.3346 41.933 47.3346 45.2328 45.2844 47.283C43.2341 49.3333 39.9343 49.3333 33.3346 49.3333H14.668C8.0683 49.3333 4.76847 49.3333 2.71822 47.283C0.667969 45.2328 0.667969 41.933 0.667969 35.3333C0.667969 28.7336 0.667969 25.4338 2.71822 23.3835C3.95636 22.1454 5.65021 21.655 8.2513 21.4607ZM11.7513 16.6666C11.7513 9.90114 17.2358 4.41663 24.0013 4.41663C30.7668 4.41663 36.2513 9.90114 36.2513 16.6666V21.3416C35.3576 21.3333 34.3882 21.3333 33.3346 21.3333H14.668C13.6144 21.3333 12.645 21.3333 11.7513 21.3416V16.6666Z" fill="#11181C"/>
</svg>
