<svg width="48" height="48" viewBox="0 0 48 48" fill="none" xmlns="http://www.w3.org/2000/svg">
<path d="M14.9057 5.42533C15.6552 3.52489 18.3448 3.52489 19.0943 5.42533L21.417 11.3146C21.6459 11.8949 22.1051 12.3541 22.6854 12.583L28.5747 14.9057C30.4751 15.6552 30.4751 18.3448 28.5747 19.0943L22.6854 21.417C22.1051 21.6459 21.6459 22.1051 21.417 22.6854L19.0943 28.5747C18.3448 30.4751 15.6552 30.4751 14.9057 28.5747L12.583 22.6854C12.3541 22.1051 11.8949 21.6459 11.3146 21.417L5.42533 19.0943C3.52489 18.3448 3.52489 15.6552 5.42533 14.9057L11.3146 12.583C11.8949 12.3541 12.3541 11.8949 12.583 11.3146L14.9057 5.42533Z" fill="#006FEE"/>
<path d="M33.8491 26.7833C34.261 25.7389 35.739 25.7389 36.1509 26.7833L37.9523 31.3507C38.078 31.6696 38.3304 31.922 38.6493 32.0477L43.2167 33.8491C44.2611 34.261 44.2611 35.739 43.2167 36.1509L38.6493 37.9523C38.3304 38.078 38.078 38.3304 37.9523 38.6493L36.1509 43.2167C35.739 44.2611 34.261 44.2611 33.8491 43.2167L32.0477 38.6493C31.922 38.3304 31.6696 38.078 31.3507 37.9523L26.7833 36.1509C25.7389 35.739 25.7389 34.261 26.7833 33.8491L31.3507 32.0477C31.6696 31.922 31.922 31.6696 32.0477 31.3507L33.8491 26.7833Z" fill="#006FEE"/>
</svg>
