<svg width="1400" height="675" viewBox="0 0 1400 675" fill="none" xmlns="http://www.w3.org/2000/svg">
<rect width="1399.57" height="675" fill="white"/>
<rect x="200" y="200" width="275" height="275" rx="48.4" fill="#006FEE"/>
<path d="M336.229 236.842H338.994L341.264 237.138L342.943 237.632L344.128 238.027L345.707 238.817L347.188 239.706L348.472 240.693L349.459 241.581L350.447 242.569L351.335 243.655L352.125 244.84L353.014 246.419L353.409 247.209L354.198 249.579L354.593 251.652L354.692 254.318L354.593 255.997L354.198 258.07L353.705 259.65L353.014 261.328L352.52 262.217L351.73 263.5L350.743 264.784L349.953 265.672L350.052 266.166L351.434 267.351L352.52 268.338L353.507 269.128L354.495 270.017L355.581 270.905L357.062 272.189L358.049 273.077L359.036 273.867L360.024 274.756L361.11 275.644L362.492 276.829L363.578 277.817L364.565 278.606L365.553 279.495L366.639 280.384L367.527 281.174L368.614 282.062L369.601 282.951L370.687 283.839L371.872 284.925L372.958 285.814L374.34 286.999L375.327 287.887L376.315 288.677L377.401 289.665L378.487 290.553L379.869 291.738L380.856 292.627L381.844 293.416L383.029 294.503L384.411 295.589L385.201 296.28V296.477L385.596 296.675L386.879 297.761L387.175 297.958V298.156L387.57 298.353L387.965 298.649V298.847L388.36 299.044L389.742 300.229L389.94 300.328V300.525L390.335 300.723L390.73 301.019V301.216L391.125 301.414L392.408 302.5L393.494 303.389V303.586L393.889 303.783L395.272 304.968L395.469 305.067V305.264L395.864 305.462L396.259 305.758V305.956L396.654 306.153L397.049 306.449V306.647L397.444 306.844L398.234 307.437V307.634L398.628 307.832L399.023 308.128V308.325L399.418 308.523L400.801 309.707L400.998 309.806V310.004L401.393 310.201L401.788 310.497V310.695L402.183 310.892L402.578 311.188V311.386L402.973 311.583L403.763 312.176V312.373L404.158 312.571L405.145 313.459L405.342 313.558V313.756L405.737 313.953L406.527 314.545V314.743L406.922 314.94L407.909 315.829L408.107 315.928V316.125L408.502 316.323L409.884 317.507L410.871 318.297V318.495L411.266 318.692L412.649 319.877L413.438 320.568L413.636 320.766H414.228L415.216 320.173L416.697 319.581L417.289 319.285L419.659 318.692L420.843 318.495H424.694L427.162 318.988L428.545 319.383L429.729 319.877L431.309 320.667L433.383 322.049V322.247L433.778 322.444L434.765 323.333L435.456 324.123L435.95 324.616L437.134 326.196L438.023 327.776L438.714 329.355L439.109 330.441L439.504 331.824L439.8 333.897V337.057L439.405 339.426L438.912 341.105L438.221 342.783L437.134 344.758L435.851 346.436L434.962 347.424L434.271 348.016L433.778 348.51L433.383 348.707V348.905L431.013 350.484L430.322 350.781L429.335 351.274L427.854 351.768L426.274 352.163L424.694 352.459H420.942L418.77 352.064L417.19 351.57L415.709 350.978L414.525 350.386L414.228 350.188L413.537 350.287L412.945 350.781L412.451 351.274L411.069 352.459H410.871V352.656L410.279 353.15H410.082V353.348L408.995 354.236L408.304 354.829H408.107V355.026L407.514 355.52H407.317V355.717L406.725 356.211H406.527V356.408L405.54 357.198H405.342V357.396L404.75 357.889H404.552V358.087L403.96 358.58H403.763V358.778L402.775 359.568H402.578V359.765L401.985 360.259H401.788V360.456L401.196 360.95H400.998V361.148L400.011 361.937L399.221 362.629H399.023L398.925 362.925L397.839 363.813L396.456 364.998H396.259L396.16 365.294L395.666 365.689H395.469V365.887L394.482 366.677L393.692 367.368H393.494L393.396 367.664L392.902 368.059H392.704L392.606 368.355L391.223 369.441L390.927 369.737H390.73L390.631 370.034L390.137 370.428H389.94V370.626L388.953 371.416L388.163 372.107H387.965L387.867 372.403L387.373 372.798H387.175V372.996L386.188 373.785L385.398 374.477H385.201L385.102 374.773L384.016 375.661L382.634 376.846L381.548 377.833L380.462 378.623L379.869 378.821L378.882 378.722L378.092 378.228L377.598 377.241V376.352L377.993 375.563L379.079 374.575H379.277V374.378L379.869 373.884H380.067V373.687L380.659 373.193H380.856V372.996L381.844 372.206H382.041V372.008L382.634 371.515H382.831V371.317L383.424 370.823H383.621V370.626L384.608 369.836L385.398 369.145H385.596V368.947L386.188 368.454H386.386V368.256L387.373 367.466H387.57V367.269L388.163 366.775H388.36L388.459 366.479L388.953 366.084H389.15V365.887L390.137 365.097L390.927 364.406H391.125V364.208L391.717 363.715H391.915V363.517L392.902 362.727L393.692 362.036H393.889L393.988 361.74L395.074 360.851L396.456 359.667L397.246 358.975H397.444L397.542 358.679L398.53 357.889L399.517 357.001L400.011 356.606H400.208V356.408L401.294 355.52L402.282 354.631L403.368 353.743L404.849 352.459L405.836 351.57L406.823 350.781L407.811 349.892L408.897 349.003L410.279 347.819L410.575 347.522L410.279 347.029L409.489 346.14L409.193 345.745V345.548H408.995L408.008 343.968L407.317 342.684L406.527 342.783L404.158 343.573L401.689 344.363L399.813 344.955L393.692 346.93L389.051 348.411L386.386 349.3L384.707 349.793L381.943 350.682L380.067 351.274L373.945 353.249L369.305 354.73L366.639 355.618L364.96 356.112L362.986 356.803L362.196 357.001L359.135 357.988L356.371 358.877L354.495 359.469L354.396 360.062L354.593 360.95L354.692 362.629V363.715L354.495 365.986L354.001 368.059L353.606 369.244L353.014 370.527L352.421 371.613L351.434 373.193L350.249 374.575L348.768 376.056L347.485 377.044L346.497 377.735L344.128 378.92L341.758 379.709L339.783 380.104L339.685 380.302V400.049L340.277 400.246L342.153 400.641L343.733 401.135L345.016 401.727L346.102 402.319L346.596 402.418L347.682 401.529L348.571 400.74L349.657 399.851L350.842 398.765L351.829 397.975L352.915 396.988L354.001 396.099L355.383 394.914L356.371 394.026L357.358 393.236L358.444 392.249L359.53 391.36L360.912 390.175L361.998 389.188L362.887 388.497L364.072 387.411L365.158 386.522L365.454 386.423V386.226L366.738 385.238L367.824 385.14L368.515 385.337L369.206 385.93L369.502 386.522L369.601 387.312L369.206 388.299L368.515 388.99L367.429 389.879L366.54 390.669L365.454 391.557L364.269 392.643L363.282 393.433L362.196 394.421L361.11 395.309L359.728 396.494L358.641 397.481L357.753 398.173L356.667 399.16L355.581 400.049L354.198 401.233L353.211 402.122L352.224 402.912L351.039 403.998L349.953 404.886L350.052 405.38L350.447 405.775V405.973H350.644L351.928 407.75L352.619 408.836L353.507 410.81L354.001 412.193L354.495 414.266L354.593 414.957L354.692 417.623L354.593 419.301L354.198 421.375L353.705 422.955L353.211 424.139L352.421 425.62L351.533 427.003L350.743 428.089L349.064 429.767H348.867L348.768 430.063L347.188 431.248L345.609 432.236L343.733 433.025L342.647 433.42L341.166 433.815L338.994 434.112H336.229L333.761 433.717L332.28 433.322L331.49 433.025L329.811 432.236L328.725 431.643L327.738 430.952L326.553 430.063L324.48 427.99L323.69 426.904L322.9 425.62L322.505 424.929L322.11 424.139L321.419 422.461L320.925 420.486L320.629 418.61V415.55L320.827 414.266V413.575L320.234 413.378L316.877 411.798L315.298 411.008L314.508 410.712L313.323 410.119L311.644 409.329L309.374 408.243L307.399 407.355L305.819 406.565L304.141 405.775L302.363 404.985L301.08 404.294L300.389 403.998L298.019 402.912L296.637 402.221L294.86 401.431L293.477 400.74L289.923 399.061L287.652 397.975L286.072 397.185L285.283 396.889L283.703 396.099L282.123 395.408L279.359 394.026L278.667 393.73L277.68 393.335L277.483 393.927L276.693 395.507L275.705 396.988L274.916 397.975L273.83 399.16L272.546 400.345L271.262 401.233L269.584 402.221L267.511 403.109L265.437 403.702L263.166 403.998H260.698L258.427 403.702L256.65 403.208L254.971 402.616L252.997 401.529L251.713 400.641L250.627 399.752L249.64 398.864L248.949 398.074L247.961 396.79L247.073 395.408L246.283 393.828L245.888 392.841L245.592 392.15L245.197 390.57L244.901 388.595V385.436L245.296 383.066L245.691 381.585L246.184 380.302L246.974 378.722L247.764 377.439L248.751 376.155L249.739 375.069L250.232 374.575L251.318 373.588L252.306 372.897L253.885 371.91L255.366 371.218L256.946 370.626L258.526 370.231L259.711 370.034L259.809 369.935V301.019L259.513 300.821L258.131 300.624L256.749 300.229L254.873 299.538L253.392 298.748L252.009 297.859L251.022 297.07L249.837 295.984L249.047 295.194L247.961 293.811L247.172 292.627L246.579 291.442L245.987 290.158L245.493 288.677L245.098 286.9L244.901 285.617V282.358L245.296 279.989L245.789 278.409L246.184 277.323L246.974 275.644L248.06 273.966L248.258 273.67H248.455L248.653 273.275L249.344 272.682L249.837 272.584H250.528L251.318 272.88L251.812 272.781L252.701 271.991L254.478 270.807V269.72L254.774 268.832L255.268 268.338L256.058 267.943H256.847L257.637 268.338L258.131 268.832L258.328 269.227L260.501 268.931L262.08 268.832L262.771 267.746L263.561 267.153H264.944L266.721 267.548L267.511 267.845L268.794 268.338L270.275 269.128L271.164 269.622L272.645 270.708L273.632 271.596L274.718 272.682V272.88H274.916L276.199 274.657L277.088 276.138L277.68 277.422V277.619L278.865 277.125L280.346 276.434L281.728 275.743L283.703 274.855L285.283 274.065L286.862 273.374L288.442 272.584L290.121 271.794L292.391 270.708L294.761 269.622L296.341 268.832L297.92 268.141L300.685 266.758L301.376 266.462L303.746 265.376L305.128 264.685L306.905 263.895L308.287 263.204L310.163 262.315L311.842 261.526L314.113 260.44L314.903 260.045L315.594 259.748L317.47 258.86L319.642 257.872L320.629 257.379H320.827L320.728 256.095L320.629 255.404V252.343L321.024 249.974L321.518 248.295L322.209 246.518L322.801 245.432L323.69 244.05L324.677 242.766L325.27 242.075L326.059 241.384L326.751 240.693L328.429 239.508L329.515 238.817L331.095 238.126L332.28 237.632L334.156 237.138L336.229 236.842ZM321.913 261.131L321.222 261.526L320.432 261.822L318.852 262.612L317.272 263.303L314.508 264.685L313.817 264.981L312.533 265.574L310.262 266.66L308.287 267.548L306.905 268.239L304.733 269.227L303.351 269.918L301.87 270.609L300.29 271.399L299.599 271.695L297.229 272.781L295.847 273.472L294.07 274.262L292.786 274.953L292.095 275.25L290.219 276.138L288.047 277.125L286.467 277.915L284.888 278.606L283.308 279.396L281.629 280.186L280.148 280.877L278.964 281.47L278.766 281.667L278.865 284.333L278.667 287.196L279.556 287.591L282.913 288.677L285.48 289.467L288.442 290.454L290.417 291.047L293.379 292.034L295.551 292.725L299.895 294.108L303.252 295.194L305.424 295.885L309.768 297.267L313.125 298.353L314.804 298.847L316.877 299.538L319.642 300.427L321.715 301.118L322.209 301.019L322.604 300.427L323.196 299.34L323.986 298.156L324.776 297.168L325.27 296.576L325.763 296.082L326.849 295.095L328.528 293.91L330.009 293.022L331.095 292.528L333.464 291.738L335.439 291.343L335.735 290.849L335.637 270.807L335.538 270.708L333.07 270.214L330.799 269.424L328.627 268.239L327.244 267.252L325.961 266.166L325.072 265.277L324.184 264.191L323.492 263.204L322.9 262.217L322.406 261.328L321.913 261.131ZM346.3 268.437L345.312 269.029L343.437 269.819L341.363 270.412L339.783 270.708L339.586 270.905V291.047L339.783 291.343L342.548 291.935L343.733 292.33L344.918 292.923L345.411 293.416L345.609 294.108V295.391L346.892 296.378L347.978 297.267L348.373 297.662L349.064 297.563L349.361 297.465H350.15L350.94 297.761L351.434 298.254L351.73 299.044L351.631 299.933L351.138 300.723L350.94 300.92L351.039 301.414L351.73 302.895L352.224 304.475L352.421 304.672L353.507 304.87L354.1 305.363L354.495 306.054L354.593 308.72L354.495 310.3L354.396 311.386L354.791 311.682L356.272 312.176L357.95 312.669L362.393 314.15L364.171 314.644L367.429 315.73L375.426 318.297L377.302 318.89L380.067 319.778L383.424 320.864L385.596 321.555L389.94 322.938L393.297 324.024L395.469 324.715L399.813 326.097L403.17 327.183L405.342 327.874L406.823 328.368H407.317L407.811 327.578L408.206 326.788L408.699 326.097L409.094 325.406L410.476 323.826L410.674 323.431L410.18 322.938L408.798 321.753L407.712 320.864L406.527 319.778L405.54 318.988L404.454 318.001L403.368 317.112L401.985 315.928L400.899 314.94L399.912 314.15L398.826 313.163L397.74 312.275L396.753 311.485L396.259 310.991L394.877 309.806H394.679V309.609L394.087 309.115H393.889V308.918L392.803 308.029L392.112 307.437H391.915V307.239L391.223 306.745L390.73 306.252L389.348 305.067H389.15V304.87L388.459 304.376L387.965 303.882L387.57 303.685V303.487L386.583 302.697H386.386V302.5L385.793 302.006H385.596V301.809L385.003 301.315H384.806V301.118L383.818 300.328H383.621V300.13L383.029 299.637H382.831V299.439L382.239 298.946H382.041V298.748L381.054 297.958H380.856V297.761L380.264 297.267H380.067V297.07L379.474 296.576H379.277V296.378L378.289 295.589H378.092V295.391L377.5 294.897H377.401L377.302 294.7L376.71 294.206H376.512V294.009L375.525 293.219L374.735 292.528H374.538L374.439 292.232L373.945 291.837H373.748V291.639L372.76 290.849L371.97 290.158H371.773L371.674 289.862L370.588 288.973L369.206 287.789H369.008L368.91 287.492L368.416 287.098H368.219V286.9L367.133 286.011L366.145 285.123L365.059 284.234L363.578 282.951L362.591 282.062L361.603 281.272L360.616 280.384L359.53 279.495L358.049 278.212L357.062 277.323L356.074 276.533L355.087 275.644L354.001 274.756L352.52 273.472L351.533 272.584L350.545 271.794L349.558 270.905L348.472 270.017L346.991 268.733L346.596 268.437H346.3ZM277.483 291.047L277.186 291.343L276.495 292.627L275.804 293.713L275.607 294.206H275.409L275.113 294.7L275.311 295.194L276.89 296.773L277.384 297.366L279.161 299.143L279.852 299.933L280.938 301.019L281.136 301.315H281.333L281.531 301.71H281.728L281.926 302.105L283.209 303.389L283.802 304.08L285.579 305.857L286.072 306.449L287.85 308.226L288.541 309.016L289.627 310.102L289.824 310.399H290.022L290.219 310.794L291.898 312.472L292.49 313.163L294.662 315.335L295.353 316.125L296.736 317.507L297.427 318.297L298.315 319.186L298.513 319.482H298.71L298.908 319.877L300.586 321.555L301.179 322.247L303.351 324.419L304.042 325.209L305.424 326.591L306.115 327.381L307.004 328.269L307.201 328.566H307.399L307.596 328.96H307.794L307.991 329.355L309.67 331.034L310.361 331.824L311.151 332.614L311.644 332.515L312.533 331.528L314.113 329.948V329.75L314.508 329.553L315.199 328.763L316.384 327.578L317.075 326.788L318.161 325.702V325.505L318.457 325.406L319.148 324.616L320.925 322.839V322.642L321.222 322.543L321.715 321.95L323.986 319.68V319.482L324.381 319.285V318.791L323.492 317.606L322.703 316.323L322.011 314.743L321.518 313.558L320.925 311.188L320.728 309.707V306.745L320.925 305.166L320.827 304.87L317.865 303.882L316.186 303.389L314.113 302.697L310.953 301.71L308.584 300.92L307.004 300.427L304.536 299.637L301.08 298.551L298.118 297.563L296.439 297.07L291.996 295.589L290.318 295.095L288.837 294.601L287.257 294.108L285.776 293.614L284.098 293.12L279.655 291.639L277.976 291.146L277.483 291.047ZM271.954 297.662L270.571 298.551L268.893 299.439L266.819 300.229L265.24 300.624L264.055 300.821L263.857 301.118V369.836L264.055 370.132L266.03 370.527L267.609 371.021L269.09 371.613L270.275 372.206L272.052 373.391L272.546 373.193L273.435 372.206L274.619 371.021V370.823L274.916 370.725L275.607 369.935L276.89 368.651L277.581 367.861L278.667 366.775V366.578L278.964 366.479L279.655 365.689L281.728 363.616L282.222 363.023L284.493 360.753V360.555L284.789 360.456L285.48 359.667L286.764 358.383L287.455 357.593L288.936 356.112L289.429 355.52L291.305 353.644V353.446L291.602 353.348L292.095 352.755L294.366 350.484V350.287L294.662 350.188L295.353 349.398L296.637 348.115L297.328 347.325L298.414 346.239V346.041L298.71 345.943L299.401 345.153L301.475 343.079L301.969 342.487L304.239 340.216V340.019L304.634 339.821L305.325 339.031L306.51 337.846L307.201 337.057L308.485 335.773L308.386 335.279L306.313 333.206L305.72 332.515L303.548 330.343L302.857 329.553L301.475 328.171L300.784 327.381L299.895 326.492L299.698 326.196H299.5L299.303 325.801L297.624 324.123L297.032 323.431L294.86 321.259L294.169 320.469L292.786 319.087L292.095 318.297L291.207 317.409L291.009 317.112H290.812L290.614 316.718H290.417L290.219 316.323L288.837 314.94L288.343 314.348L286.566 312.571L286.072 311.978L283.999 309.905L283.308 309.115L282.518 308.325L281.827 307.535L280.148 305.857L279.655 305.264L277.483 303.092L276.792 302.302L275.311 300.821L274.619 300.032L273.83 299.242L273.138 298.452L272.349 297.662H271.954ZM353.112 315.335L352.717 315.928L352.125 317.112L351.434 318.1L350.348 319.482L348.867 320.963L347.781 321.852L346.596 322.642L345.214 323.431L344.128 323.925L342.054 324.616L340.178 325.011L339.388 325.11H335.834L333.563 324.715L331.194 323.925L329.515 323.135L328.034 322.148L327.639 321.852L327.146 321.95L325.961 323.135L325.467 323.728L323.196 325.998V326.196L322.9 326.295L322.209 327.085L320.629 328.664L319.938 329.454L318.753 330.639L318.062 331.429L316.384 333.107V333.305L316.087 333.403L315.594 333.996L314.211 335.378V335.872L316.087 337.748L316.285 338.044H316.482L316.68 338.439L318.358 340.117L318.951 340.808L320.728 342.586L321.222 343.178L322.9 344.857L323.591 345.646L324.381 346.436L324.973 347.127H325.171L325.368 347.522L327.244 349.398L327.935 349.3V349.102L328.429 348.905L329.515 348.213L331.194 347.424L332.28 347.029L333.464 346.634L335.834 346.239H339.487L341.758 346.634L344.424 347.522L346.102 348.411L347.386 349.201L347.88 349.596H348.077V349.793L349.064 350.583L350.447 351.965L351.434 353.249L352.421 354.73L352.915 355.618L353.31 355.717L356.864 354.532L358.543 354.039L361.9 352.953L368.021 350.978L372.662 349.497L374.241 349.003L377.894 347.819L382.535 346.338L386.287 345.153L389.051 344.264L391.421 343.474L393.099 342.981L397.542 341.5L399.32 341.006L401.294 340.315L402.973 339.821L405.342 339.031L405.836 338.834L406.033 338.636L405.836 335.971V334.983L406.033 332.317L405.737 332.021L404.158 331.528L401.788 330.738L400.109 330.244L398.036 329.553L396.358 329.059L391.915 327.578L390.236 327.085L388.163 326.393L386.484 325.9L384.411 325.209L381.646 324.32L379.573 323.629L377.796 323.135L374.538 322.049L371.773 321.161L369.7 320.469L368.021 319.976L361.9 318.001L358.543 316.915L356.371 316.224L353.902 315.434L353.112 315.335ZM311.249 338.538L308.979 340.808L308.386 341.5L306.214 343.672L305.72 344.264L303.45 346.535V346.732L303.055 346.93V347.127L302.758 347.226L302.067 348.016L300.882 349.201L300.191 349.991L299.007 351.175L298.315 351.965L296.341 353.94L295.847 354.532L293.576 356.803V357.001L293.181 357.198V357.396L292.885 357.494L292.194 358.284L291.108 359.37L290.417 360.16L289.133 361.444L288.442 362.234L286.862 363.813L286.369 364.406L285.776 364.899L285.085 365.689L283.703 367.072V367.269L283.308 367.466V367.664L283.012 367.763L282.321 368.553L281.136 369.737L280.445 370.527L279.26 371.712L278.569 372.502L276.594 374.477L276.1 375.069L275.212 375.958V376.451L275.607 376.945L276.298 377.932L276.89 379.018L277.285 379.808L277.68 379.907L279.161 379.413L280.84 378.92L283.308 378.13L285.283 377.439L286.961 376.945L288.442 376.451L290.022 375.958L291.503 375.464L293.181 374.97L297.624 373.489L299.303 372.996L302.66 371.91L308.189 370.132L310.657 369.342L312.237 368.849L318.654 366.775L320.53 366.183L320.827 365.986L320.728 364.505V361.542L321.123 359.173L321.715 357.297L322.406 355.618L322.999 354.631L323.492 353.743L324.48 352.36L324.282 351.965L323.492 351.077L323.097 350.682H322.9L322.703 350.287L321.32 348.905L320.827 348.312L319.049 346.535L318.358 345.745L317.272 344.659L317.075 344.363H316.877L316.68 343.968L315.001 342.289L314.409 341.598H314.211L314.014 341.203L312.632 339.821L312.138 339.229L311.644 338.735L311.249 338.538ZM321.419 369.935L318.457 370.922L315.001 372.008L312.237 372.897L309.077 373.884L304.931 375.266L303.252 375.76L299.895 376.846L293.774 378.821L288.837 380.401L286.467 381.19L284.789 381.684L282.716 382.375L281.037 382.869L278.766 383.659L278.667 383.758L278.865 386.522L278.766 389.287L279.062 389.583L280.148 390.076L282.419 391.163L283.703 391.755L284.888 392.347L285.678 392.643L287.257 393.433L289.627 394.519L292.391 395.902L293.083 396.198L294.958 397.087L297.131 398.074L299.895 399.456L300.586 399.752L301.87 400.345L304.141 401.431L306.115 402.319L307.498 403.01L309.67 403.998L311.052 404.689L312.533 405.38L314.113 406.17L314.804 406.466L317.173 407.552L318.556 408.243L320.333 409.033L320.827 409.329L321.616 409.626L322.11 409.823L322.505 409.527L323.097 408.342L323.887 407.157L324.776 406.071L325.862 404.886L326.849 403.998L328.627 402.714L330.009 401.924L331.095 401.431L333.07 400.74L335.538 400.246L335.637 400.147L335.735 380.401L335.538 380.006L333.168 379.512L331.095 378.821L329.219 377.833L327.935 377.044L326.652 376.056L326.158 375.563H325.961L325.862 375.266L325.368 374.773H325.171L324.973 374.378L324.184 373.489L323.097 371.91L322.505 370.823L322.11 369.935H321.419Z" fill="white"/>
<path d="M345.511 294.998L345.709 295.393L346.893 296.281L347.979 297.17L348.374 297.565L349.065 297.466L349.362 297.367H350.152L350.941 297.664L351.534 298.256L351.83 299.046L351.731 299.934L351.238 300.724L351.04 300.922L351.139 301.415L351.83 302.896L352.324 304.476L352.62 304.772H352.027L351.139 305.365L350.744 306.155V308.82L350.546 310.795L350.152 312.276L349.263 314.35L348.473 315.633L347.683 316.62L346.795 317.608L346.005 318.299L345.709 318.398V318.595L344.03 319.681L342.352 320.471L341.266 320.866L339.291 321.261H336.033L334.157 320.866L332.478 320.274L331.096 319.582L330.01 318.891L328.924 318.003L327.542 316.62L326.653 315.337L325.764 313.856L325.073 311.98L324.58 309.709V306.747L325.073 304.476L325.666 302.896L326.456 301.317L327.344 300.132L328.233 299.145L328.726 298.651L329.714 297.762L331.195 296.775L332.38 296.183L333.959 295.59L335.835 295.195L337.81 295.097L340.081 295.294L341.66 295.689L343.24 296.281H344.228L344.919 295.886L345.215 295.689L345.511 294.998Z" fill="white"/>
<path d="M256.055 267.945H256.845L257.634 268.34L258.128 268.834L258.326 269.229L260.498 268.933L262.077 268.834L262.275 268.735L262.374 269.722L262.867 270.512L263.756 271.006L265.928 271.5L267.409 272.092L268.989 272.981L269.482 273.277V273.474L269.976 273.672L271.26 274.857L272.148 275.844L273.234 277.424L274.024 279.003L274.518 280.484L274.814 281.669L274.913 282.656V285.322L274.715 286.705L274.32 288.186L273.827 289.37L272.938 291.049L271.951 292.332L270.963 293.418L270.174 294.11L268.693 295.196L267.508 295.788L266.323 296.282L264.743 296.775L263.46 296.973L261.683 297.072L259.807 296.874L258.424 296.578L256.943 296.084L255.364 295.294L254.278 294.603L252.994 293.517L252.007 292.53L251.217 291.542L250.328 290.16L249.538 288.284L249.143 287.001L248.847 285.125V282.755L249.242 280.583L249.637 279.3L250.328 277.917L250.921 276.831L251.809 275.646L252.105 274.857L252.007 273.968L251.71 273.376L251.316 272.981L251.908 272.684L253.093 271.697L254.475 270.808V269.722L254.771 268.834L255.265 268.34L256.055 267.945Z" fill="white"/>
<path d="M337.415 240.694L339.192 240.793L341.167 241.188L342.352 241.583L343.339 241.978L345.314 243.163L346.103 243.755L347.683 245.335L348.868 247.013L349.46 248.001L349.954 249.186L350.349 250.469L350.645 251.753L350.744 252.74V255.011L350.546 256.393L350.152 257.874L349.757 259.059L348.967 260.54L348.078 261.823L347.486 262.613H347.288L347.091 263.008L346.4 263.699L344.524 265.082L342.845 265.97L341.364 266.464L340.278 266.76L338.6 266.958H336.625L334.65 266.661L333.071 266.168L331.886 265.674L330.602 264.884L329.911 264.489L328.43 263.206L327.443 262.12L326.554 260.935L325.962 259.849L325.271 258.269L324.975 257.479L324.58 255.504V252.345L324.975 250.37L325.567 248.692L326.258 247.31L327.147 246.026L327.838 245.137L328.43 244.446L329.516 243.558L330.701 242.669L332.281 241.879L333.466 241.386L335.045 240.991L336.131 240.793L337.415 240.694Z" fill="white"/>
<path d="M337.316 349.991L339.488 350.09L341.364 350.485L342.549 350.88L344.425 351.867L345.709 352.756L346.893 353.842L347.782 354.73L348.671 355.915L349.263 357.001L349.855 358.186L350.25 359.272L350.645 360.951L350.744 362.037V364.209L350.546 365.69L350.152 367.27L349.658 368.454L349.065 369.639L348.374 370.725L347.288 372.009L346.103 373.194L344.721 374.181L343.339 374.971L342.549 375.366L340.871 375.859L339.39 376.156L337.316 376.254L335.835 376.156L333.959 375.761L332.774 375.366L331.195 374.576L329.911 373.786V373.588L329.516 373.391L328.529 372.502L328.035 372.009L327.147 371.021L326.159 369.54L325.271 367.566L324.975 366.776L324.58 364.801V361.543L324.975 359.47L325.567 357.989L326.357 356.409L327.344 355.027L328.233 354.039L328.726 353.546L329.714 352.657H329.911V352.46L331.886 351.275L333.169 350.781L333.861 350.485L335.835 350.09L337.316 349.991Z" fill="white"/>
<path d="M336.724 403.999H338.501L340.574 404.295L341.957 404.69L342.944 405.085L344.524 405.875L346.202 407.159L347.288 408.146L348.374 409.528L349.164 410.812L349.757 411.997L350.25 413.379L350.645 415.057L350.744 416.341V417.822L350.546 419.698L350.152 421.08L349.658 422.364L348.967 423.746L348.177 424.931L347.584 425.72L346.4 426.905L345.906 427.3H345.709V427.498L343.833 428.682L342.845 429.176L340.772 429.867L338.995 430.163H336.23L334.255 429.769L333.169 429.472L330.8 428.288L329.121 427.103L327.64 425.622L326.456 423.943L325.666 422.462L325.073 420.981L324.58 418.612V415.551L325.073 413.28L325.567 411.898L326.357 410.417L327.245 409.133L328.43 407.751L329.319 406.961L330.306 406.171L331.392 405.579L332.577 404.986L333.959 404.493L335.045 404.197L336.724 403.999Z" fill="white"/>
<path d="M421.343 322.444H424.206L425.786 322.74L426.872 323.036L428.156 323.53L429.34 324.123L430.624 325.011L431.611 325.801L432.895 327.085L433.783 328.368L434.376 329.355L435.067 330.935L435.561 332.515L435.857 334.49V336.464L435.462 338.834L434.771 340.808L433.981 342.289L432.993 343.672L432.796 343.968H432.599L432.401 344.363L431.315 345.449L429.834 346.535L428.748 347.127L427.464 347.72L426.28 348.115L424.206 348.51H421.442L418.973 348.016L417.591 347.522L416.11 346.732L414.827 345.844L413.543 344.758L412.852 343.968L411.865 342.684L411.173 341.5L410.68 340.414L410.285 339.327L409.89 337.649L409.791 336.859V334.095L410.087 332.416L410.581 330.836L411.075 329.652L411.865 328.269L412.951 326.887L413.74 325.998L414.827 325.11L415.814 324.419L417.196 323.629L418.48 323.135L419.27 322.839L421.343 322.444Z" fill="white"/>
<path d="M261.683 373.884L263.46 373.983L265.138 374.279L267.409 375.069L268.298 375.563L269.384 376.254L270.667 377.241L271.161 377.735L272.148 378.821L273.037 380.104L274.024 381.98L274.419 383.066L274.814 384.745L274.913 385.633V388.299L274.715 389.78L274.222 391.36L273.531 393.038L272.642 394.421L272.05 395.309H271.852L271.655 395.704L270.47 396.889H270.272V397.086L268.495 398.271L267.014 399.061L265.533 399.555L264.348 399.851L262.374 400.048H261.288L259.412 399.851L257.338 399.259L256.45 398.864L255.265 398.271L253.981 397.383L253.685 397.185V396.988L253.29 396.79L252.303 395.803L251.414 394.816L250.427 393.335L249.637 391.557L249.143 389.879L248.847 388.102V385.831L249.242 383.56L249.933 381.684L250.526 380.499L251.217 379.413L252.402 378.031L253.389 377.044L254.376 376.254L256.055 375.266L257.634 374.575L259.115 374.18L260.399 373.983L261.683 373.884Z" fill="white"/>
<path d="M256.06 267.945H256.85L257.64 268.34L258.134 268.834L258.43 269.525V270.512L258.134 271.105L257.443 271.697L257.146 271.895H255.863L255.073 271.401L254.678 270.907L254.481 270.117L254.579 269.327L254.777 268.834L255.27 268.34L256.06 267.945Z" fill="white"/>
<path d="M373.257 380.008L374.343 380.107L375.133 380.699L375.528 381.489V382.575L374.936 383.464L373.948 383.957H373.257L372.369 383.562L371.776 382.871L371.579 382.378V381.489L372.072 380.6L372.764 380.107L373.257 380.008Z" fill="white"/>
<path d="M349.362 297.368H350.152L350.942 297.664L351.534 298.257L351.83 299.046L351.731 299.935L351.238 300.725L350.744 301.12L350.053 301.317L349.263 301.219L348.572 300.922L347.881 299.935V298.651L348.473 297.862L348.769 297.565L349.362 297.368Z" fill="white"/>
<path d="M1145.65 420.107C1131.76 420.107 1119.58 416.24 1109.12 408.506C1098.67 400.771 1091.29 389.814 1087 375.635L1114.93 364.463C1117.07 372.913 1120.8 379.574 1126.1 384.443C1131.54 389.456 1138.13 391.963 1145.86 391.963C1152.31 391.963 1157.97 390.316 1162.84 387.021C1167.56 383.87 1169.93 379.287 1169.93 373.271C1169.93 367.256 1167.71 362.458 1163.27 358.877C1158.68 355.153 1150.66 351.143 1139.2 346.846L1129.54 343.408C1119.51 339.971 1110.92 334.6 1103.75 327.295C1096.45 319.704 1092.8 310.537 1092.8 299.795C1092.8 291.488 1094.95 284.04 1099.24 277.451C1103.54 270.719 1109.55 265.42 1117.29 261.553C1125.31 257.542 1134.12 255.537 1143.71 255.537C1157.89 255.537 1169.14 258.903 1177.45 265.635C1185.61 272.367 1191.2 280.173 1194.2 289.053L1168.21 300.01C1166.49 294.997 1163.62 290.915 1159.61 287.764C1155.46 284.469 1150.3 282.822 1144.14 282.822C1137.56 282.822 1132.26 284.326 1128.25 287.334C1124.09 290.342 1122.02 294.281 1122.02 299.15C1122.02 303.877 1123.95 307.887 1127.82 311.182C1131.97 314.619 1138.49 317.842 1147.37 320.85L1157.25 324.072C1171.14 328.942 1181.6 335.101 1188.62 342.549C1195.92 350.283 1199.57 360.381 1199.57 372.842C1199.57 383.298 1196.92 392.035 1191.62 399.053C1186.04 406.357 1179.24 411.657 1171.21 414.951C1162.91 418.389 1154.39 420.107 1145.65 420.107Z" fill="#006FEE"/>
<path d="M954.644 409.365C941.753 401.774 931.87 391.82 924.995 379.502C917.834 366.755 914.253 352.861 914.253 337.822C914.253 322.926 917.834 309.105 924.995 296.357C931.87 284.04 941.753 274.085 954.644 266.494C967.105 259.189 981.07 255.537 996.538 255.537C1012.01 255.537 1025.97 259.189 1038.43 266.494C1051.32 274.085 1061.21 284.04 1068.08 296.357C1075.24 309.105 1078.82 322.926 1078.82 337.822C1078.82 352.861 1075.24 366.755 1068.08 379.502C1061.21 391.82 1051.32 401.774 1038.43 409.365C1026.26 416.527 1012.29 420.107 996.538 420.107C980.783 420.107 966.818 416.527 954.644 409.365ZM1023.18 385.303C1030.91 381.006 1037.29 374.561 1042.3 365.967C1046.88 358.089 1049.17 348.708 1049.17 337.822C1049.17 326.937 1046.88 317.555 1042.3 309.678C1037.43 301.227 1031.06 294.854 1023.18 290.557C1015.16 286.117 1006.28 283.896 996.538 283.896C986.799 283.896 977.99 286.117 970.112 290.557C962.378 294.997 956.076 301.37 951.206 309.678C946.48 317.842 944.116 327.223 944.116 337.822C944.116 348.421 946.48 357.803 951.206 365.967C956.219 374.561 962.521 381.006 970.112 385.303C977.99 389.743 986.799 391.963 996.538 391.963C1006.28 391.963 1015.16 389.743 1023.18 385.303Z" fill="#006FEE"/>
<path d="M869.772 286.689C866.048 282.965 864.186 278.525 864.186 273.369C864.186 268.356 866.048 263.988 869.772 260.264C873.353 256.683 877.721 254.893 882.877 254.893C888.034 254.893 892.402 256.683 895.983 260.264C899.564 263.844 901.354 268.213 901.354 273.369C901.354 278.669 899.564 283.109 895.983 286.689C892.402 290.27 888.034 292.061 882.877 292.061C877.721 292.061 873.353 290.27 869.772 286.689ZM868.483 304.521H897.272V416.67H868.483V304.521Z" fill="#006FEE"/>
<path d="M786.404 420.107C774.516 420.107 764.776 416.67 757.185 409.795C749.594 402.92 745.798 393.753 745.798 382.295C745.798 374.847 747.732 368.258 751.599 362.529C755.323 356.943 760.766 352.575 767.927 349.424C775.089 346.273 782.752 344.697 790.916 344.697C802.517 344.697 812.4 346.416 820.564 349.854V344.912C820.564 338.753 818.272 333.812 813.689 330.088C808.963 326.221 802.732 324.287 794.998 324.287C789.985 324.287 784.9 325.505 779.744 327.939C774.874 330.231 770.792 333.382 767.498 337.393L749.021 322.998C754.321 316.123 761.124 310.68 769.431 306.67C777.595 302.803 786.547 300.869 796.287 300.869C813.331 300.869 826.436 304.88 835.603 312.9C844.483 320.778 848.923 332.308 848.923 347.49V416.67H820.564V405.283H818.845C815.265 409.867 810.825 413.447 805.525 416.025C800.082 418.747 793.709 420.107 786.404 420.107ZM793.279 397.764C801.729 397.764 808.39 395.114 813.259 389.814C818.129 384.515 820.564 378.213 820.564 370.908C812.686 367.327 804.809 365.537 796.931 365.537C782.035 365.537 774.588 371.123 774.588 382.295C774.588 386.878 776.235 390.602 779.529 393.467C782.823 396.331 787.407 397.764 793.279 397.764Z" fill="#006FEE"/>
<path d="M670.595 304.521H697.45V319.346H699.384C702.105 314.046 706.402 309.678 712.274 306.24C718.003 302.803 724.449 301.084 731.61 301.084C736.766 301.084 741.493 301.943 745.79 303.662V332.451C742.066 331.019 738.7 329.945 735.692 329.229C732.541 328.512 729.677 328.154 727.098 328.154C718.361 328.154 711.558 331.234 706.688 337.393C701.819 343.551 699.384 351.357 699.384 360.811V416.67H670.595V304.521Z" fill="#006FEE"/>
<path d="M598.828 287.334H555V259.189H672.52V287.334H628.691V416.67H598.828V287.334Z" fill="#006FEE"/>
</svg>
