<svg width="20" height="10" viewBox="0 0 20 10" fill="none" xmlns="http://www.w3.org/2000/svg">
<path d="M2.35635 0.538057C2.19318 0.157334 1.75228 -0.0190294 1.37155 0.144137C0.99083 0.307304 0.814467 0.748213 0.977633 1.12894L2.35635 0.538057ZM12.9896 6.10741L12.715 5.40953L12.9896 6.10741ZM7.63964 6.51645C7.86555 6.16927 7.76723 5.70468 7.42004 5.47878C7.07285 5.25287 6.60827 5.35119 6.38236 5.69837L7.63964 6.51645ZM5.20502 7.50779C4.97911 7.85498 5.07743 8.31956 5.42462 8.54547C5.77181 8.77138 6.23639 8.67306 6.4623 8.32587L5.20502 7.50779ZM19.023 1.12894C19.1862 0.748213 19.0098 0.307304 18.6291 0.144137C18.2484 -0.0190294 17.8075 0.157334 17.6443 0.538057L19.023 1.12894ZM15.8337 4.27419L15.3204 3.72735V3.72735L15.8337 4.27419ZM16.5533 6.05452C16.8462 6.34742 17.3211 6.34742 17.614 6.05452C17.9069 5.76163 17.9069 5.28676 17.614 4.99386L16.5533 6.05452ZM9.25033 8.75016C9.25033 9.16438 9.58611 9.50016 10.0003 9.50016C10.4145 9.50016 10.7503 9.16438 10.7503 8.75016H9.25033ZM13.5384 8.32587C13.7643 8.67306 14.2288 8.77137 14.576 8.54547C14.9232 8.31956 15.0215 7.85498 14.7956 7.50779L13.5384 8.32587ZM4.69732 4.80452C4.99022 4.51163 4.99022 4.03676 4.69732 3.74386C4.40443 3.45097 3.92956 3.45097 3.63666 3.74386L4.69732 4.80452ZM2.38666 4.99386C2.09377 5.28676 2.09377 5.76163 2.38666 6.05452C2.67956 6.34742 3.15443 6.34742 3.44732 6.05452L2.38666 4.99386ZM10.0003 5.91683C7.35977 5.91683 5.46165 4.6031 4.19575 3.23982C3.56303 2.55843 3.09878 1.87467 2.79323 1.36134C2.64088 1.10539 2.52915 0.89378 2.45663 0.748737C2.4204 0.676272 2.39404 0.620596 2.37737 0.584508C2.36904 0.566469 2.36313 0.553343 2.35964 0.54548C2.35789 0.541548 2.35674 0.538935 2.35619 0.537682C2.35592 0.537056 2.3558 0.536771 2.35582 0.536831C2.35584 0.536861 2.35589 0.536978 2.35598 0.537182C2.35602 0.537284 2.35611 0.537503 2.35614 0.537554C2.35624 0.537794 2.35635 0.538057 1.66699 0.833496C0.977633 1.12894 0.977765 1.12924 0.977906 1.12957C0.977966 1.12971 0.978118 1.13006 0.978238 1.13034C0.978478 1.1309 0.978758 1.13155 0.979077 1.13229C0.979714 1.13376 0.980508 1.13559 0.981458 1.13777C0.983359 1.14212 0.985888 1.14787 0.989048 1.15498C0.995368 1.16919 1.00422 1.18882 1.01562 1.21351C1.03842 1.26287 1.07147 1.33252 1.11499 1.41956C1.20197 1.59352 1.33113 1.83765 1.50429 2.12857C1.84978 2.70899 2.37512 3.48357 3.09656 4.2605C4.539 5.81389 6.80755 7.41683 10.0003 7.41683V5.91683ZM12.715 5.40953C11.9202 5.72234 11.0187 5.91683 10.0003 5.91683V7.41683C11.2152 7.41683 12.3027 7.18382 13.2643 6.8053L12.715 5.40953ZM6.38236 5.69837L5.20502 7.50779L6.4623 8.32587L7.63964 6.51645L6.38236 5.69837ZM18.3337 0.833496C17.6443 0.538057 17.6444 0.537904 17.6444 0.537759C17.6444 0.53772 17.6445 0.537581 17.6445 0.537502C17.6446 0.537345 17.6447 0.537215 17.6447 0.537112C17.6448 0.536907 17.6448 0.536812 17.6448 0.536825C17.6448 0.53685 17.6446 0.537309 17.6442 0.538194C17.6435 0.539963 17.6419 0.543435 17.6396 0.548547C17.6351 0.558772 17.6275 0.575548 17.6168 0.598382C17.5955 0.644065 17.5621 0.713892 17.5161 0.803929C17.4242 0.984173 17.283 1.24439 17.0904 1.55339C16.704 2.17357 16.1184 2.97834 15.3204 3.72735L16.3469 4.82104C17.2644 3.95986 17.9288 3.04428 18.3635 2.34665C18.5815 1.99676 18.7436 1.69871 18.8524 1.48542C18.9068 1.37868 18.948 1.29292 18.9764 1.23221C18.9905 1.20185 19.0014 1.17772 19.0092 1.16035C19.0131 1.15166 19.0162 1.14465 19.0185 1.1394C19.0196 1.13677 19.0206 1.13458 19.0213 1.13283C19.0217 1.13196 19.022 1.1312 19.0223 1.13055C19.0225 1.13022 19.0226 1.12993 19.0227 1.12966C19.0228 1.12952 19.0228 1.12934 19.0229 1.12928C19.0229 1.1291 19.023 1.12894 18.3337 0.833496ZM15.3204 3.72735C14.6135 4.39081 13.7484 5.00275 12.715 5.40953L13.2643 6.8053C14.51 6.31498 15.5324 5.58557 16.3469 4.82104L15.3204 3.72735ZM15.3033 4.80452L16.5533 6.05452L17.614 4.99386L16.364 3.74386L15.3033 4.80452ZM9.25033 6.66683V8.75016H10.7503V6.66683H9.25033ZM12.361 6.51645L13.5384 8.32587L14.7956 7.50779L13.6183 5.69837L12.361 6.51645ZM3.63666 3.74386L2.38666 4.99386L3.44732 6.05452L4.69732 4.80452L3.63666 3.74386Z" fill="#A1A1AA"/>
</svg>
