<svg width="31" height="41" viewBox="0 0 31 41" fill="none" xmlns="http://www.w3.org/2000/svg">
<path fill-rule="evenodd" clip-rule="evenodd" d="M15.5 0.25C7.21573 0.25 0.5 7.12191 0.5 15.5988C0.5 20.1436 2.43205 24.2284 5.49718 27.0368C6.5188 27.9728 7.27564 28.6663 7.81202 29.1695C8.08021 29.4211 8.28525 29.6176 8.43659 29.7685C8.51202 29.8437 8.56972 29.9032 8.61271 29.9493C8.63398 29.9721 8.64998 29.9899 8.66161 30.0032C8.67298 30.0162 8.67839 30.0229 8.67839 30.0229C9.15142 30.6202 9.2538 30.7743 9.31477 30.9139C9.37575 31.0535 9.41964 31.2344 9.53897 31.9934C9.58609 32.2931 9.59091 32.8064 9.59091 34.2035L9.59091 34.2634C9.59088 35.0817 9.59085 35.7874 9.64215 36.3666C9.69639 36.979 9.8165 37.5854 10.139 38.157C10.498 38.7933 11.0145 39.3218 11.6364 39.6892C12.1949 40.0192 12.7876 40.1421 13.3861 40.1976C13.9521 40.2501 14.6418 40.25 15.4414 40.25H15.5586C16.3582 40.25 17.0479 40.2501 17.6139 40.1976C18.2124 40.1421 18.8051 40.0192 19.3636 39.6892C19.9855 39.3218 20.502 38.7933 20.861 38.157C21.1835 37.5854 21.3036 36.979 21.3579 36.3666C21.4091 35.7874 21.4091 35.0816 21.4091 34.2634V34.2035C21.4091 32.8064 21.4139 32.2931 21.461 31.9934C21.5804 31.2344 21.6243 31.0535 21.6852 30.9139C21.7462 30.7743 21.8486 30.6202 22.3216 30.0229C22.3216 30.0229 22.3236 30.0204 22.3281 30.0151C22.3281 30.0151 22.334 30.0081 22.3384 30.0032C22.35 29.9899 22.366 29.9721 22.3873 29.9493C22.4303 29.9032 22.488 29.8437 22.5634 29.7685C22.7148 29.6176 22.9198 29.4211 23.188 29.1695C23.7244 28.6663 24.4812 27.9728 25.5028 27.0368C28.5679 24.2284 30.5 20.1436 30.5 15.5988C30.5 7.12191 23.7843 0.25 15.5 0.25ZM18.6417 36.1147C18.6552 35.9622 18.6642 35.7927 18.6701 35.5988H12.3299C12.3358 35.7927 12.3448 35.9622 12.3583 36.1147C12.3954 36.5335 12.458 36.6856 12.5009 36.7616C12.6206 36.9737 12.7927 37.1499 13 37.2724C13.0743 37.3163 13.2229 37.3803 13.6323 37.4183C14.0604 37.458 14.6253 37.4593 15.5 37.4593C16.3747 37.4593 16.9396 37.458 17.3677 37.4183C17.7771 37.3803 17.9257 37.3163 18 37.2724C18.2073 37.1499 18.3794 36.9737 18.4991 36.7616C18.542 36.6856 18.6046 36.5335 18.6417 36.1147Z" fill="#006FEE"/>
<path fill-rule="evenodd" clip-rule="evenodd" d="M11.0475 22.9516C11.7646 22.5368 12.6822 22.7818 13.097 23.4989C13.5315 24.2501 14.34 24.75 15.2634 24.75C16.1869 24.75 16.9954 24.2501 17.4299 23.4989C17.8447 22.7818 18.7623 22.5368 19.4794 22.9516C20.1965 23.3664 20.4415 24.284 20.0267 25.0011C19.3202 26.2225 18.1543 27.1493 16.7634 27.5429V30.25C16.7634 31.0784 16.0919 31.75 15.2634 31.75C14.435 31.75 13.7634 31.0784 13.7634 30.25V27.5429C12.3726 27.1493 11.2067 26.2225 10.5002 25.0011C10.0854 24.284 10.3304 23.3664 11.0475 22.9516Z" fill="white"/>
</svg>
